<?xml version="1.0" standalone="no"?>
<!DOCTYPE svg PUBLIC "-//W3C//DTD SVG 1.1//EN" "http://www.w3.org/Graphics/SVG/1.1/DTD/svg11.dtd" >
<svg xmlns="http://www.w3.org/2000/svg" xmlns:xlink="http://www.w3.org/1999/xlink" version="1.1">
<metadata>
Created by FontForge 20150824 at Wed Jul 27 09:40:06 2016
 By Everything Fonts
Copyright (c) 2011 by Frances MacLeod. All rights reserved.
</metadata>
<defs>
<font id="AbrahamLincoln" horiz-adv-x="376" >
  <font-face 
    font-family="Abraham Lincoln"
    font-weight="400"
    font-stretch="normal"
    units-per-em="1000"
    panose-1="0 0 0 0 0 0 0 0 0 0"
    ascent="750"
    descent="-250"
    x-height="486"
    cap-height="715"
    bbox="-28.7826 -236 721.1 869"
    underline-thickness="50"
    underline-position="-100"
    unicode-range="U+0020-FB02"
  />
<missing-glyph horiz-adv-x="182" 
 />
    <glyph glyph-name=".notdef" horiz-adv-x="182" 
 />
    <glyph glyph-name="C" unicode="C" horiz-adv-x="337" 
d="M173 690q-16 -2 -29.5 -8t-24 -19t-16.5 -34t-6 -52q0 -42 -0.5 -100.5t-0.5 -120.5q0 -63 0.5 -122t0.5 -101q0 -63 21.5 -89.5t53.5 -26.5q26 0 47 7t36 23t23 42.5t8 65.5v27h23v-51q0 -65 -35.5 -101t-100.5 -35q-31 0 -62.5 15.5t-51.5 45.5q-13 19 -19.5 43.5
t-9 60t-2.5 83.5v113q0 87 1 144.5t8 95.5q4 32 20.5 56.5t39.5 39.5q37 23 76 23h9.5t9.5 -1l-2 2q6 -2 8 -2q23 -5 37 -12l24 -12q8 -3 14 0q12 7 12 26q2 0 3 -0.5t2 -0.5h19v-175h-22q-1 16 -3 33q-2 14 -5.5 31t-11.5 33q-2 4 -8.5 14t-18 19.5t-28.5 16t-39 3.5z" />
    <glyph glyph-name="D" unicode="D" horiz-adv-x="365" 
d="M336 568v-423q0 -27 -9.5 -53t-28.5 -46.5t-47.5 -33t-66.5 -12.5h-8.5t-18.5 -0.5t-24.5 -0.5h-27.5h-74v26q7 -2 13 0q5 2 9 8t4 20v606q0 14 -4 20.5t-9 8.5q-6 2 -13 0v25h153q38 0 66.5 -12.5t47.5 -33t28.5 -46.5t9.5 -53zM126 687v-660h60q17 2 35 9.5t31 24.5
q16 23 17 63v466q0 18 -5 35q-7 21 -19.5 33.5t-27.5 19t-30.5 8t-27.5 1.5h-33z" />
    <glyph glyph-name="E" unicode="E" horiz-adv-x="337" 
d="M306 105v-105h-279v26q8 -3 12 0q5 1 9.5 7.5t4.5 20.5v607q0 15 -4.5 21.5t-9.5 8.5q-4 2 -12 0v24h279v-105h-26q-1 23 -6 41q-5 15 -16.5 28.5t-31.5 13.5h-104v-324h70q13 0 20 7t10 16q4 11 4 25h23v-123h-23q0 14 -4 24q-3 10 -10 17.5t-20 7.5h-70v-319h104
q20 0 31.5 12t16.5 28q5 18 6 41h26z" />
    <glyph glyph-name="F" unicode="F" horiz-adv-x="329" 
d="M315 715v-105h-26q-1 23 -6 41q-5 15 -16 28.5t-32 13.5h-112v-322h39q52 0 59 8t10 17q4 11 4 26h23v-124h-23q0 15 -4 25q-3 10 -10 18t-59 8h-39v-295q0 -14 4 -20.5t8 -7.5q6 -3 13 0v-26h-121v26q8 -3 12 0q5 1 10 7.5t5 20.5v607q0 15 -5 21.5t-10 8.5q-4 2 -12 0
v24h288z" />
    <glyph glyph-name="G" unicode="G" horiz-adv-x="353" 
d="M193 357l155 -1v-26q-7 2 -11 0t-7 -7.5t-3 -18.5v-304h-24q0 26 -41 11q-34 -19 -78 -18q-32 0 -64 15.5t-52 45.5q-13 19 -19.5 44t-9.5 60.5t-3 84v114.5q0 88 1 146.5t9 96.5q4 33 21 57t40 40q37 23 77 23h9.5t9.5 -1l-2 1q2 0 4 -0.5t4 -0.5q23 -5 37 -12.5
t24 -11.5q7 -4 15 0q5 3 8.5 8t3.5 14h25v-174h-23q0 16 -3 33q-2 14 -6 31.5t-12 34.5q-2 4 -8.5 14t-18 19.5t-28.5 16t-39 3.5q-16 -2 -30.5 -8t-25 -19.5t-16.5 -34.5t-6 -53v-224v-223q0 -64 22.5 -91t54.5 -27q16 0 30 3q17 6 26.5 15.5t14 25t5.5 36.5t1 50v156
q1 8 -2 14q-2 5 -8 10t-18 5h-39v27z" />
    <glyph glyph-name="H" unicode="H" horiz-adv-x="407" 
d="M372 26v-26h-121v26q8 -3 13 0q4 1 8.5 7.5t4.5 20.5v292h-153v-292q0 -14 4 -20.5t8 -7.5q6 -3 13 0v-26h-120v26q8 -3 12 0q5 1 9.5 7.5t4.5 20.5v607q0 15 -4.5 21.5t-9.5 8.5q-4 2 -12 0v24h120v-24q-7 2 -13 0q-4 -2 -8 -8.5t-4 -21.5v-291h153v291q0 15 -4.5 21.5
t-8.5 8.5q-5 2 -13 0v24h121v-24q-8 2 -14 0q-4 -2 -8 -8.5t-4 -21.5v-607q0 -14 4 -20.5t8 -7.5q6 -3 14 0z" />
    <glyph glyph-name="I" unicode="I" horiz-adv-x="159" 
d="M114 54q0 -14 4.5 -20.5t8.5 -7.5q5 -3 13 0v-26h-121v26q8 -3 14 0q3 1 7.5 7.5t4.5 20.5v607q0 15 -4.5 21.5t-7.5 8.5q-6 2 -14 0v24h121v-24q-8 2 -13 0q-4 -2 -8.5 -8.5t-4.5 -21.5v-607z" />
    <glyph glyph-name="O" unicode="O" horiz-adv-x="342" 
d="M321 356v-113t-2.5 -83.5t-9 -60t-19.5 -43.5q-20 -30 -51 -45.5t-63 -15.5q-31 0 -62.5 15.5t-51.5 45.5q-13 19 -19.5 43.5t-9 60t-2.5 83.5v113q0 87 1 144.5t9 95.5q4 32 20 56.5t39 39.5q37 23 76 23q19 0 39 -6t37 -17q23 -15 39.5 -39.5t19.5 -56.5
q7 -38 8.5 -95.5t1.5 -144.5zM252 133v101t1 122q-1 62 -1 120.5v100.5q0 63 -22 88t-54 25t-54 -25t-22 -88v-221v-223q0 -63 19.5 -89.5t57.5 -26.5t56.5 26.5t18.5 89.5z" />
    <glyph glyph-name="T" unicode="T" horiz-adv-x="343" 
d="M328 715v-106h-26q-1 24 -6 42q-5 15 -16.5 28.5t-31.5 13.5h-41v-639q0 -14 4 -20.5t9 -7.5q5 -3 12 0v-26h-121v26q8 -3 13 0q5 1 9.5 7.5t4.5 20.5v639h-42q-21 0 -32 -13.5t-15 -28.5q-6 -18 -7 -42h-27v106h313z" />
    <glyph glyph-name="U" unicode="U" horiz-adv-x="371" 
d="M144 715v-24q-7 2 -12 0t-9 -8.5t-4 -21.5v-36v-88t0.5 -116.5t0.5 -119.5v-96.5v-49.5q0 -77 16.5 -109t48.5 -32h1h1q30 0 47.5 32t17.5 109v78v51v377q0 15 -3.5 21.5t-8.5 8.5q-6 2 -13 0v24h119v-24q-6 2 -12 0q-5 -2 -8.5 -8.5t-3.5 -21.5v-533q0 -32 -12.5 -57.5
t-32.5 -43.5t-44 -27t-47 -9q-24 0 -48 9t-43.5 27t-31 43t-11.5 57v28.5v63v85.5t-0.5 96t-0.5 96v84v58.5v22.5q0 15 -4.5 21.5t-9.5 8.5q-4 2 -12 0v24h119z" />
    <glyph glyph-name="a" unicode="a" horiz-adv-x="353" 
d="M376 43q0 -8 -4 -16.5t-11.5 -16t-19 -13.5t-26.5 -6q-24 0 -43 11t-26 29q-6 10 -9 23q-13 -27 -39.5 -45t-58.5 -18q-40 0 -70 29q-17 15 -28 39t-13 55q-1 3 -1 12v1q1 17 6 35.5t15.5 37t25 35t31.5 28.5q4 2 6.5 4.5t7.5 5.5l3 1.5l3 1.5q18 11 31.5 20t24.5 17
q6 4 12 9t13 10q9 6 17 14t12 19q6 10 6 24t-3 25q-4 22 -20.5 38t-36.5 21q-9 3 -17 3q-28 0 -48 -10q-13 -6 -19 -13.5t-6.5 -14t2.5 -10.5t8 -6q2 -1 2.5 -1t2.5 -1q13 -5 21.5 -17.5t8.5 -27.5q0 -19 -13.5 -32.5t-32.5 -13.5q-20 0 -34 13.5t-14 32.5q0 17 4.5 35.5
t13.5 33.5q19 28 45.5 40.5t58.5 12.5q24 0 47.5 -9t42 -25.5t31 -39.5t12.5 -53v-294q0 -18 0.5 -23.5t0.5 -7.5v0q0 -13 8 -21t19 -8q13 0 21 7.5t9 19.5h21zM219 68q8 14 9.5 30t1.5 30v185q-4 -4 -8.5 -7.5t-9.5 -8.5q-29 -21 -49.5 -38.5t-34.5 -36t-22 -39.5t-10 -48
v-15q1 -38 20.5 -59.5t55.5 -21.5q16 0 29 8q13 9 18 21z" />
    <glyph glyph-name="b" unicode="b" horiz-adv-x="335" 
d="M186 494q24 0 48 -8t43.5 -24.5t32 -43t12.5 -63.5v-229q0 -27 -12.5 -52t-32 -43.5t-44 -29t-47.5 -10.5q-17 0 -29.5 5t-21.5 10t-16 10t-14 4q-8 -1 -12.5 -4.5t-7.5 -6.5q-4 -3 -6 -9h-27v659q0 15 -5 21.5t-10 8.5q-4 3 -12 0v24h94v-255q18 23 34 29.5t33 6.5z
M252 333q0 38 -4.5 64.5t-12.5 41.5t-20.5 21.5t-28.5 6.5q-14 0 -27.5 -4.5t-24.5 -16.5q-8 -10 -11.5 -23t-3.5 -34v-293q0 -6 2.5 -16.5t6.5 -21.5t12.5 -21t19.5 -15q14 -8 26 -8q15 1 27.5 8t21 24t13 43t4.5 64v180z" />
    <glyph glyph-name="Z" unicode="Z" horiz-adv-x="302" 
d="M272 715v-22v-1l-173 -668h93q20 0 31.5 12.5t15.5 28.5q6 18 7 41h26v-106h-239h-2v24h1v2l171 667h-92q-20 0 -31.5 -13.5t-16.5 -28.5q-5 -18 -6 -41h-26v105h241z" />
    <glyph glyph-name="Y" unicode="Y" horiz-adv-x="390" 
d="M379 715v-24q-6 2 -14 0q-7 -2 -13 -8.5t-11 -21.5q0 -2 -11.5 -37t-29 -90t-39 -121.5t-42.5 -131.5v-1v-226q0 -14 4 -20.5t8 -7.5q6 -3 13 0v-26h-120v26q3 -1 7 -1q3 0 6.5 1t6.5 4q5 7 5 24v226q-16 65 -33 132t-31.5 122t-24 90.5t-9.5 36.5q-3 15 -9.5 21.5
t-12.5 8.5q-9 2 -16 0v24h126v-24q-8 2 -12 0q-5 -2 -7.5 -8.5t1.5 -21.5q0 -1 7.5 -29t19 -73.5t26 -103t29.5 -116.5q19 59 38 116.5t33.5 103t24 73.5t9.5 29q5 15 3 21.5t-7 8.5q-4 2 -12 0v24h87z" />
    <glyph glyph-name="J" unicode="J" horiz-adv-x="335" 
d="M312 715v-24q-9 2 -14 0q-4 -2 -8.5 -8.5t-4.5 -21.5v-415h1v-19.5t-1 -20.5v-8v-9.5t-1 -8.5q-2 -41 -8.5 -74t-21.5 -57t-39.5 -39t-63.5 -19q-40 -2 -68.5 12.5t-46 38.5t-24.5 53t-4 54.5t18 42.5t39 17q21 0 36.5 -14.5t15.5 -35.5q0 -18 -11 -31t-27 -18
q-2 -1 -5 -1q-16 -5 -18 -22t8 -35t31.5 -30.5t50.5 -7.5q20 4 33 15t21 27.5t11.5 37.5t5.5 44v33v490q0 15 -4.5 21.5t-9.5 8.5t-12 0v24h121z" />
    <glyph glyph-name="K" unicode="K" horiz-adv-x="416" 
d="M342 78q8 -23 17 -34t17 -15q9 -5 16 -3v-25h-158v25q11 -2 19 3q6 4 9.5 15t-3.5 34q-2 6 -12 29t-24 55.5t-29.5 71t-27.5 75.5q-8 -18 -15 -32l-11 -22v-201q0 -14 4.5 -20t10.5 -8t15 0v-26h-139v26q8 -2 14 0q5 2 10 8t5 20v607q0 14 -5 20.5t-10 8.5q-6 2 -14 0v25
h139v-25q-9 2 -15 0t-10.5 -8.5t-4.5 -20.5v-341q13 28 29.5 62t33 69t32.5 68.5t29.5 60.5t22 45.5t10.5 22.5q9 17 6.5 25.5t-9.5 12.5q-8 4 -21 4v25h118v-25q-12 0 -23 -4q-10 -4 -21 -12.5t-19 -25.5q-1 -3 -11.5 -25.5t-27 -56.5t-36.5 -75.5t-39 -81.5
q6 -17 17.5 -47.5t25 -66.5t28.5 -73.5t27 -68.5t20.5 -52t9.5 -23z" />
    <glyph glyph-name="L" unicode="L" horiz-adv-x="311" 
d="M296 105v-105h-269v26q8 -3 12 0q5 1 10 7.5t5 20.5v607q0 15 -5 21.5t-10 8.5q-4 2 -12 0v24h121v-24q-8 2 -14 0q-4 -2 -8 -8.5t-4 -21.5v-635h94q21 0 32 11.5t16 27.5q5 17 6 40h26z" />
    <glyph glyph-name="M" unicode="M" horiz-adv-x="446" 
d="M417 691q-8 2 -14 0q-4 -2 -8 -8.5t-4 -21.5v-607q0 -14 4 -20.5t8 -7.5q6 -3 14 0v-26h-121v26q8 -3 12 0q5 1 10 7.5t5 20.5v549q-26 -104 -47 -187q-9 -35 -17 -69t-15 -61t-11 -44t-4 -18h-42q-6 23 -14 52.5t-16 61t-16 62.5t-15 61q-18 70 -36 142v-548
q0 -14 3.5 -20.5t8.5 -7.5q6 -3 13 0v-27h-85v27q8 -3 12 0q5 1 9.5 7.5t4.5 20.5v606q0 15 -4.5 21.5t-9.5 8.5q-4 2 -12 0v24h98l100 -379l95 379h94v-24z" />
    <glyph glyph-name="N" unicode="N" horiz-adv-x="401" 
d="M277 714h88v-25q-9 2 -15 0q-5 -2 -9.5 -8.5t-4.5 -20.5v-660h-84l-166 574v-520q0 -14 4.5 -20t9.5 -8q6 -2 15 0v-26h-88v26q8 -2 14 0q5 2 10 8t5 20v606q0 14 -5 20.5t-10 8.5q-6 2 -14 0v25h102l177 -608v554q0 14 -5 20.5t-10 8.5q-6 2 -14 0v25z" />
    <glyph glyph-name="P" unicode="P" horiz-adv-x="353" 
d="M325 569q1 -24 1 -54.5t-1 -53.5q0 -27 -9.5 -53.5t-28.5 -47.5t-47.5 -33t-65.5 -12h-51v-261q0 -14 4 -20.5t8 -7.5q6 -3 13 0v-26h-121v26q8 -3 12 0q5 1 10 7.5t5 20.5v607q0 15 -5 21.5t-10 8.5q-4 2 -12 0v24h147q37 0 65.5 -12t47.5 -33t28.5 -47t9.5 -54z
M254 591q0 26 -8.5 45t-20 30t-24 17.5t-21.5 6.5h-57v-348h57q9 0 21.5 5t24 17.5t20 30.5t8.5 45v151z" />
    <glyph glyph-name="Q" unicode="Q" horiz-adv-x="361" 
d="M341 12q0 -23 -9 -42q-7 -17 -24 -29.5t-48 -10.5q-16 1 -27.5 6.5t-20.5 14.5t-15 20.5t-11 22.5q-5 -1 -10.5 -1.5t-11.5 -0.5q-37 0 -72 21v1q-27 16 -45 44.5t-18 68.5v458q0 37 12.5 63.5t31.5 44t43 25.5t48 8q25 0 48.5 -7.5t43 -25t32 -44t12.5 -63.5v-459
q0 -38 -21 -68t-50 -48q8 -20 16.5 -35.5t21.5 -19.5q10 -2 19 1.5t15.5 11.5t11 20t4.5 24h11q6 0 13 -1zM89 154q0 -34 4 -58.5t13 -41.5q9 15 24.5 22t32.5 5q18 -1 30 -12.5t21 -26.5q13 15 19.5 42.5t6.5 69.5v410q0 39 -5.5 65t-16 41t-24.5 21.5t-30 6.5
q-17 0 -30.5 -6.5t-23.5 -21.5t-15.5 -41t-5.5 -65v-410zM164 15q9 0 14 2q-6 15 -13 26t-18 12q-12 0 -18 -6t-10 -15q18 -19 45 -19z" />
    <glyph glyph-name="R" unicode="R" horiz-adv-x="360" 
d="M317 20q7 0 11 2l8 4v-22q-6 -5 -15 -9.5t-24 -4.5q-13 0 -26 5t-24 16t-18.5 28.5t-8.5 43.5v164q0 22 -6 35.5t-15.5 20.5t-20.5 9.5t-20 3.5h-41v-262q0 -14 4 -20.5t8 -7.5q6 -3 13 0v-26h-120v26q7 -3 12 0q5 1 9.5 7.5t4.5 20.5v608q0 14 -4.5 21t-9.5 9
q-5 1 -12 0v24h143q37 0 65.5 -12.5t47.5 -32.5t28.5 -46t9.5 -54v-109q0 -39 -20 -76t-62 -55q57 -23 57 -88v-160q0 -26 3.5 -44.5t22.5 -18.5zM117 691v-347h54q9 0 21.5 5.5t24 17t20 30t8.5 44.5v152q0 25 -8.5 43.5t-20 30.5t-24 18t-21.5 6h-54z" />
    <glyph glyph-name="S" unicode="S" horiz-adv-x="305" 
d="M171 417q67 -86 97.5 -159.5t17.5 -144.5q-6 -23 -15.5 -44.5t-24.5 -38.5t-37 -27.5t-53 -11.5q-20 -1 -36.5 7.5t-29.5 15t-20.5 5.5t-8.5 -21h-26v178h27q-3 -22 -1.5 -41.5t5.5 -37.5q4 -15 10 -29.5t16 -26.5t25 -20t37 -9q15 -1 33 8t29 23q25 34 21 73t-23 76
t-45 70.5t-44 57.5q-35 42 -55.5 83t-30.5 79t-10 73.5t7 67.5q13 48 41.5 74.5t85.5 26.5q19 0 34.5 -9.5t27 -16.5t17.5 -6t8 22h28v-175h-28q2 46 -7 79q-7 30 -25 55t-54 25q-20 0 -37.5 -8t-28.5 -21q-24 -34 -22.5 -68.5t17 -67.5t38.5 -62.5t40 -53.5z" />
    <glyph glyph-name="V" unicode="V" horiz-adv-x="387" 
d="M274 714h97v-25q-9 2 -18 0q-8 -2 -15 -8.5t-9 -20.5q0 -1 -5.5 -30t-13.5 -75.5t-19 -106t-22 -120.5q-26 -145 -60 -328h-51l-52 328q-10 61 -19.5 120.5t-17 106t-12 75.5t-4.5 30q-3 14 -9.5 20.5t-14.5 8.5q-9 2 -18 0v25h148v-25q-9 2 -16 0q-6 -2 -10 -8.5
t-1 -20.5q0 -1 3.5 -26.5t10 -67t14.5 -95t17 -109.5t17.5 -111t16.5 -99q9 44 19 99t20 111t19 109.5t16 95t11 67t4 26.5q3 14 -1 20.5t-9 8.5q-7 2 -16 0v25z" />
    <glyph glyph-name="W" unicode="W" horiz-adv-x="558" 
d="M448 715h97v-25q-10 2 -19 0q-8 -2 -14.5 -8.5t-9.5 -20.5q0 -1 -5 -30t-13.5 -75.5t-19.5 -106t-22 -120.5q-26 -145 -59 -328h-52q-8 53 -18 112q-8 51 -18 113.5t-20 128.5q-12 -66 -23.5 -128.5t-20.5 -113.5q-11 -59 -20 -112h-52l-52 328q-10 61 -19 120.5
t-16.5 106t-12 75.5t-4.5 30q-3 14 -9.5 20.5t-14.5 8.5q-9 2 -18 0v25h148v-25q-9 2 -16 0q-6 -2 -10 -8.5t-1 -20.5q0 -1 3.5 -26.5t10 -67.5t14.5 -95.5t17 -109.5t17.5 -111t16.5 -99q11 58 24.5 132t25.5 146q-8 47 -14.5 88.5t-11.5 73t-8 50t-3 19.5q-2 14 -9 20.5
t-14 8.5q-9 2 -18 0v25h147v-25q-10 2 -16 0t-9.5 -8.5t-1.5 -20.5q0 -1 4 -26.5t10.5 -67.5t14.5 -95.5t16.5 -109.5t17 -111t16.5 -99q9 44 19 99t20 111t19 109.5t16 95.5t11.5 67.5t4.5 26.5q2 14 -1.5 20.5t-8.5 8.5q-6 2 -16 0v25z" />
    <glyph glyph-name="X" unicode="X" horiz-adv-x="354" 
d="M331 691q-7 2 -14 0t-13 -8.5t-11 -21.5q0 -1 -7.5 -24t-20.5 -61.5t-28.5 -87.5t-32.5 -102q15 -60 30 -119t27 -105.5t19.5 -76.5t7.5 -31q3 -14 9.5 -20.5t13.5 -7.5q9 -3 16 0v-26h-126v26q8 -3 13 0q4 1 6.5 7.5t-1.5 20.5q0 1 -4.5 18t-12 46.5t-17 67.5t-20.5 80
q-14 -42 -26 -80.5t-21 -67.5t-15 -46.5t-6 -18.5q-4 -14 -2.5 -20t6.5 -7q5 -3 12 0v-26h-87v26q8 -3 14 0q7 1 13 7t11 20q0 1 7 24.5t19.5 61.5t27.5 86.5t32 99.5q-16 61 -31 120t-27.5 107t-20.5 78t-8 32q-5 14 -10.5 20.5t-13.5 8.5q-7 2 -16 0v24h128v-24
q-8 2 -13 0t-7.5 -8.5t1.5 -20.5q0 -1 5 -19t12.5 -47.5t18 -69t21.5 -83.5q14 44 26.5 83.5t22.5 69t16 47t6 18.5q5 15 3 21.5t-7 8.5q-4 2 -12 0v24h87v-24z" />
    <glyph glyph-name="c" unicode="c" horiz-adv-x="337" 
d="M170 473q-32 -2 -53.5 -32.5t-21.5 -91.5v-221q0 -34 6.5 -56t18 -35t27 -18t32.5 -5q21 0 40 6t34 20t24 38.5t9 60.5h22v-13q0 -28 -7.5 -52.5t-24 -43t-42.5 -29t-64 -10.5q-24 0 -49 9.5t-45 27t-33 42.5t-13 56v224q0 34 13 61t33 46t45 29t49 10q12 0 23 -1t22 -6
q1 -1 3 -1l8 -3q11 -2 23 -9.5t21 -7.5q12 0 12 20h26v-169h-22q0 13 -1 29.5t-4.5 33t-11 32.5t-19.5 29q-18 18 -39 24t-41 6z" />
    <glyph glyph-name="d" unicode="d" horiz-adv-x="356" 
d="M310 47q0 -14 4 -18.5t9 -5.5t13 3v-26h-94v38q-4 -6 -8 -10.5t-9 -9.5q-17 -14 -39 -22q-1 0 -2 -1h-2q-12 -4 -30 -4h-3q-56 1 -90.5 34.5t-34.5 105.5v225q0 36 9 62.5t25.5 43t39 25t51.5 9.5h3q18 0 30 -4h2l2 -1q22 -7 39 -22q5 -4 9 -9t8 -11v209q0 16 -4.5 22
t-8.5 8q-7 3 -14 0v26h95v-667zM150 14q17 -1 32.5 5t27.5 18t21 33t11 52v244q-2 30 -11 51t-21 33.5t-27.5 18t-32.5 4.5q-27 -2 -38 -22.5t-12 -71.5v-1q0 -4 -0.5 -24.5t-0.5 -48.5v-61.5v-62t0.5 -48.5t0.5 -24v-1q1 -51 12 -71.5t38 -22.5z" />
    <glyph glyph-name="e" unicode="e" horiz-adv-x="322" 
d="M162 496q23 0 47 -8t43 -25t30.5 -43t11.5 -62v-101v-3v-23h-199v-103q0 -62 21.5 -88.5t53.5 -25.5q19 1 37.5 6.5t32 18.5t22.5 37t9 63h23v-14q0 -27 -6 -51.5t-21 -42.5t-38.5 -28.5t-57.5 -11.5q-24 0 -49 9t-45 27t-33 42.5t-13 55.5v23.5t-0.5 38.5t-0.5 47.5
t-0.5 49.5t-0.5 43.5v29.5q0 36 12.5 62.5t31 43t42 25t47.5 8.5zM227 257v79q0 38 -5 63.5t-13.5 41t-20.5 21.5t-27 6q-32 0 -48.5 -28t-16.5 -104v-79h131z" />
    <glyph glyph-name="f" unicode="f" horiz-adv-x="267" 
d="M277 631l-1 -1q1 -1 1 -4q0 -18 -13.5 -31t-31.5 -13t-30.5 13t-12.5 31q0 29 25 40q16 8 7 21q0 1 -1 1q-1 4 -6 6q-10 8 -24 8q-16 0 -25 -13t-12.5 -33.5t-4 -47.5t-0.5 -54v-3v-65h84v-27h-84v-405q0 -15 4 -21t9 -7q5 -3 13 0v-26h-121v26q8 -3 13 0q4 1 8.5 7
t4.5 21v405h-69v27h69q0 6 0.5 25t0.5 35.5t0.5 29.5l0.5 13q0 29 7 54t21 43.5t34.5 29t46.5 10.5q14 0 30 -7t28 -19.5t20.5 -29.5t8.5 -39z" />
    <glyph glyph-name="g" unicode="g" horiz-adv-x="325" 
d="M151 128q29 0 44.5 28t15.5 99v94q0 70 -15.5 96.5t-44.5 26.5t-44.5 -26.5t-15.5 -96.5v-94q0 -71 15.5 -99t44.5 -28zM263 535q15 0 29 -7q5 -2 7 -4.5t4 -7.5l2 -10q0 -10 -7 -17t-16 -7h-1q-10 0 -17 6.5t-7 15.5q-1 8 -6 8q-6 0 -14.5 -5.5t-13.5 -11.5
q-4 -4 -8 -15q25 -14 42 -41t17 -69v-140q0 -26 -11 -48t-28.5 -39t-40 -26.5t-43.5 -9.5q-27 0 -55 13q-15 -21 -5 -32.5t59 -15.5q33 -2 55.5 -13.5t35.5 -28t19.5 -36t9 -37t2 -31t-0.5 -19.5q-1 -10 -7 -26.5t-19.5 -32.5t-36.5 -27.5t-59 -11.5q-40 0 -66.5 16t-39 39
t-13 47.5t8.5 42.5q13 18 23.5 22t13.5 4q18 0 29 -12t11 -28q0 -17 -11 -28.5t-29 -11.5q-19 0 -16 -12.5t16 -25.5q10 -8 28.5 -18.5t40.5 -10.5h5q34 2 54 18t28 38t4.5 44t-16.5 38q-8 8 -22 14t-30 11t-31 8.5t-26 4.5q-13 3 -25.5 6t-23.5 8t-18 15t-7 28
q0 27 12.5 44.5t23.5 24.5q-20 17 -33 40.5t-13 54.5v138q0 33 11.5 57.5t29 40t39.5 23t44 7.5t46 -8q7 25 26.5 36t39.5 11z" />
    <glyph glyph-name="h" unicode="h" horiz-adv-x="374" 
d="M125 715v-264q2 3 7 10t15.5 15t26.5 14t38 6h3q21 0 41.5 -8.5t36.5 -25.5t25.5 -43.5t9.5 -62.5v-302q0 -19 7 -24t12 -5h5q1 0 2 1v-26h-121v26q1 -1 2 -1h4q6 0 12 4t8 20v53.5v67.5t-0.5 71t-0.5 65v48.5v23.5h-1v1q-2 51 -12 72t-35 23h-3q-31 0 -54 -23.5
t-28 -81.5v-315q0 -19 6.5 -24t12.5 -5h4q1 0 2 1v-26h-121v26q1 -1 2 -1h5q5 0 12 5t7 24v607q0 19 -7 25t-12 6q-2 0 -3 -0.5t-2 -0.5h-2v24h96z" />
    <glyph glyph-name="A" unicode="A" horiz-adv-x="383" 
d="M332 53q2 -14 8.5 -20t14.5 -8t18 0v-25h-147v25q9 -2 16 0q5 2 9 8t2 20q0 2 -5.5 35.5t-13.5 88.5h-128q-10 -55 -15.5 -88.5t-5.5 -35.5q-3 -14 0.5 -20t8.5 -8q6 -2 16 0v-25h-96v25q9 -2 18 0q8 2 14.5 8t9.5 20q0 1 5 29.5t13.5 75t19.5 105.5t22 121l60 328h51
q29 -183 52 -327q10 -62 19 -121t16.5 -105.5t12.5 -75.5t5 -30zM110 203h121q-6 41 -13.5 88t-15 94.5t-15 92.5t-13.5 83q-8 -38 -16 -83t-16.5 -92.5t-16.5 -94.5t-15 -88z" />
    <glyph glyph-name="t" unicode="t" horiz-adv-x="269" 
d="M278 81q0 -35 -22 -57q-15 -15 -35 -24t-43 -9q-34 0 -60 19t-38 50q-3 8 -4.5 16.5t-1.5 19.5q0 3 -0.5 9.5t-0.5 15.5t-0.5 17t-0.5 14v307h-69v27h69v175q0 15 -4.5 21.5t-8.5 8.5q-5 2 -13 0v24h95v-229h84v-27h-84v-56t-0.5 -69.5t-0.5 -82v-77.5v-59t1 -30
q7 -36 22 -47.5t35 -11.5q23 0 40 15.5t18 39.5h22z" />
    <glyph glyph-name="z" unicode="z" horiz-adv-x="297" 
d="M265 135v-135h-265q49 127 87 228q16 43 32.5 83t29 72.5t20 54t8.5 23.5h-84q-27 0 -41 -17t-20 -38q-7 -24 -6 -54h-26v134l265 1q-51 -127 -91 -226q-17 -43 -34 -85t-30 -75t-21 -54t-8 -23h97q26 0 38.5 17t17.5 38q5 24 4 56h27z" />
    <glyph glyph-name="i" unicode="i" horiz-adv-x="194" 
d="M140 598q0 -19 -13 -31.5t-31 -12.5t-30 12.5t-12 31.5q0 18 12 30t30 12t31 -12t13 -30zM131 54q0 -14 4 -20.5t9 -7.5q5 -3 12 0v-26h-120v26q7 -3 13 0q5 1 9 7.5t4 20.5v381q0 13 -4 19.5t-9 8.5q-6 2 -13 0v25h95v-434z" />
    <glyph glyph-name="j" unicode="j" horiz-adv-x="212" 
d="M136 640q18 0 31 -12.5t13 -30.5t-13 -31.5t-31 -13.5t-31 13.5t-13 31.5t13 30.5t31 12.5zM193 461h-2l-1 0.5t-3 0.5q-5 0 -12 -5t-7 -25v-24t-0.5 -57.5t-0.5 -80v-90.5v-244q-2 -17 -6.5 -38.5t-16 -41t-31 -34t-49.5 -15.5h-4q-33 0 -53.5 17.5t-29 40.5t-5.5 45.5
t16 30.5q4 2 6 5q4 2 9.5 4t10.5 2q9 0 21 -6q16 -10 20.5 -22.5t1.5 -24t-10 -21t-15 -12.5q-6 -2 -8.5 -8t1 -12.5t12 -11t21.5 -4.5q3 0 4 1q10 0 17.5 10t11.5 25t6 32.5t2 34.5v499q0 20 -7 25t-13 5q-2 0 -3 -0.5t-2 -0.5h-2v26h121v-26z" />
    <glyph glyph-name="k" unicode="k" horiz-adv-x="358" 
d="M140 690h-2q-1 0 -1.5 0.5t-2.5 0.5q-7 0 -13.5 -6t-6.5 -25v-478q3 6 14 25.5t25.5 45.5t30.5 54.5t30 54t23 42t10 18.5q7 14 6 22.5t-5.5 13t-11 5.5t-9.5 1h-1v24h107v-24h-1q-3 0 -10 -1t-15.5 -5.5t-17.5 -13t-14 -22.5q-2 -4 -20.5 -37t-44.5 -77
q12 -37 25.5 -76.5t25.5 -73t19.5 -55.5t8.5 -25q6 -18 12.5 -28.5t11.5 -16t10 -7t8 -1.5q1 0 2 1v-26h-137v26q0 -1 1 -1h3q3 0 8 1.5t8 7t4 16t-3 28.5q-1 4 -6 17.5t-12.5 33t-17 44.5t-18.5 52q-13 -25 -26 -47.5t-23 -41.5v-82q0 -20 6.5 -24.5t13.5 -4.5h4q1 0 2 1
v-26h-121v26q1 -1 2 -1h5q5 0 12.5 4.5t7.5 24.5v606q0 19 -7.5 25t-12.5 6q-2 0 -3 -0.5t-2 -0.5h-2v24h121v-24z" />
    <glyph glyph-name="l" unicode="l" horiz-adv-x="182" 
d="M127 54q0 -14 4.5 -20.5t8.5 -7.5q5 -3 13 0v-26h-121v26q8 -3 14 0q3 1 8 7.5t5 20.5v606q0 15 -5 21.5t-8 8.5q-6 3 -14 0v24h95v-54v-606z" />
    <glyph glyph-name="m" unicode="m" horiz-adv-x="577" 
d="M530 49q0 -14 4 -19t9 -6q5 -2 12 2v-26h-120v26q6 -2 12 0q5 1 8.5 6t4.5 17v286v24.5t-1 19.5v1q-2 51 -12 72t-33 22q-33 1 -56.5 -21.5t-30.5 -78.5q0 -4 0.5 -8.5t0.5 -9.5v-143v-159q0 -14 4.5 -20.5t9.5 -7.5q4 -3 12 0v-26h-120v26q6 -2 12 0q4 1 8 6t5 17v285
v24.5t-1 19.5v1q-2 51 -12 72t-35 22q-31 2 -55.5 -22t-29.5 -82v-315q0 -14 4 -20.5t8 -7.5q6 -3 13 0v-26h-120v26q7 -3 12 0q5 1 9.5 7.5t4.5 20.5v380q0 14 -4.5 20.5t-9.5 8.5t-12 0v25h95v-38q6 10 15 19q9 8 18 13.5t19 8.5q1 1 2 1t2 1q6 2 13 2.5t15 0.5h2
q37 -1 64 -16.5t40 -50.5q9 25 27 41q17 14 38 22v1h1q13 3 29 3h4q52 -1 83.5 -33.5t31.5 -105.5v-144v-164z" />
    <glyph glyph-name="n" unicode="n" 
d="M209 496q53 -2 84.5 -34.5t31.5 -105.5v-146v-156q0 -20 7 -24.5t12 -4.5h5q1 0 2 1v-26h-120v26q1 -1 2 -1h4q5 0 11 4t8 20v284q0 14 -0.5 25t-0.5 20v1q-2 50 -12.5 71t-33.5 23h-4q-32 0 -54.5 -24t-27.5 -81v-314q0 -20 6.5 -24.5t12.5 -4.5h4q1 0 2 1v-26h-120v26
q1 -1 2 -1h5q5 0 12.5 4.5t7.5 24.5v382q0 19 -7.5 24t-12.5 5h-3h-2h-2v23h95v-39q4 6 7 11t8 9q16 15 37 22h2q0 1 1 1q7 2 14 3t15 1h2z" />
    <glyph glyph-name="o" unicode="o" horiz-adv-x="333" 
d="M167 496q24 0 48 -8t44 -25t32.5 -44t12.5 -64v-227q0 -29 -13 -54t-32.5 -43t-43.5 -29t-48 -11t-48.5 9t-43.5 27t-32 43.5t-13 57.5v225q0 38 12.5 65t32 44.5t44 25.5t48.5 8zM233 333q0 38 -4.5 64.5t-13 42.5t-21 22.5t-28.5 6.5q-32 0 -49 -29.5t-17 -106.5v-178
q0 -77 17 -109t49 -32t49.5 32t17.5 109v178z" />
    <glyph glyph-name="p" unicode="p" horiz-adv-x="351" 
d="M210 496q57 -1 91 -34.5t34 -106.5v-224q0 -73 -34 -106t-91 -35h-3q-17 0 -31 4h-1q-1 0 -1 1q-23 8 -40 22l-9.5 9.5t-7.5 10.5v-166q0 -14 4 -20.5t8 -8.5q6 -3 13 0v-25h-121v25q8 -3 12 0q5 2 9.5 8.5t4.5 20.5v564q0 14 -4.5 20.5t-9.5 8.5q-4 2 -12 0v24h96v-39
q7 11 17 20q17 15 40 22q0 1 1 1h1q16 4 31 4h3zM260 377v1q-1 51 -12.5 72t-37.5 23q-18 1 -34 -4.5t-28 -18.5t-20 -35t-11 -52v-240q3 -31 11 -52.5t20 -34t28 -18.5t34 -5q26 2 37.5 23t12.5 72v1v268z" />
    <glyph glyph-name="q" unicode="q" horiz-adv-x="340" 
d="M287 -129q0 -14 4.5 -20.5t9.5 -8.5q4 -3 13 0v-25h-120v25q7 -3 12 0q5 2 9 8.5t4 20.5v157q-18 -22 -34 -29.5t-33 -7.5q-24 0 -48 8.5t-43.5 25.5t-32 43.5t-12.5 63.5v230q0 27 12.5 52t32 43.5t44 28.5t47.5 10q17 0 29.5 -4.5t21.5 -9.5t16 -9.5t14 -4.5
q13 1 21 11q4 4 6 10h27v-618zM219 392q0 6 -2.5 16.5t-6.5 22t-12 21.5t-20 15q-1 0 -2 1q-11 6 -23 6q-31 -2 -48.5 -32.5t-17.5 -107.5v-181q0 -38 4 -64t12.5 -42t21 -22t28.5 -6q18 0 35.5 9t30.5 32v332z" />
    <glyph glyph-name="r" unicode="r" horiz-adv-x="306" 
d="M298 417q0 -2 1 -8t0 -10q-1 -21 -14.5 -34.5t-32.5 -13.5q-20 0 -33.5 14t-13.5 34q0 25 19 38q2 1 2.5 1.5l1.5 1.5q7 5 9 14.5t-12 16.5q-9 5 -18 5q-30 2 -53 -18t-31 -70v-334q0 -14 4 -20.5t8 -7.5q6 -3 13 0v-26h-121v26q8 -3 12 0q5 1 10 7.5t5 20.5v381
q0 14 -5 20.5t-10 8.5q-4 2 -12 0v25h96v-41q7 11 14 20.5t16.5 16t22 10.5t31.5 4q29 0 54 -21t37 -61z" />
    <glyph glyph-name="s" unicode="s" horiz-adv-x="297" 
d="M205 6q-1 -1 -1.5 -1t-1.5 -1l-1 -1q-2 -1 -4.5 -2t-4.5 -2q-21 -9 -49 -9q-16 0 -31 7.5t-26 12.5t-18.5 4.5t-7.5 -14.5h-19v120h24q-2 -32 7 -55q6 -20 23.5 -37.5t52.5 -17.5q23 0 38 8q26 13 35.5 31t7.5 37.5t-14.5 38.5t-30.5 35q-12 9 -25 19t-26 21
q-35 28 -55.5 50.5t-31.5 42t-15 37t-4 37.5q0 12 1.5 22t3.5 18q3 17 10 33t20 28.5t32 20.5t46 8q15 0 30 -6.5t27 -12t19 -5t7 15.5h19v-124h-26q1 30 -7 54q-7 21 -24.5 38t-51.5 17q-27 0 -44 -12q-9 -7 -15.5 -20.5t-7.5 -29.5t5 -34.5t24 -34.5q2 -3 5.5 -6t7.5 -5
q3 -2 5 -4l4 -4q11 -9 22.5 -18t23.5 -18q28 -24 46.5 -43.5t31 -36.5t18.5 -32t7 -29q10 -46 -3.5 -77.5t-34.5 -49.5h-1q0 -2 -2 -2q-2 -2 -4 -3l-6 -4t-6 -3v-1q-1 0 -2 -0.5t-2 -0.5z" />
    <glyph glyph-name="u" unicode="u" horiz-adv-x="374" 
d="M347 461h-2q-1 0 -2 0.5t-2 0.5q-5 0 -12 -5.5t-7 -24.5v-17.5v-43v-60.5v-69.5t-0.5 -69.5t-0.5 -60.5v-43.5v-18q0 -19 6.5 -22.5t12.5 -3.5q2 0 3 1q1 0 2 1v-26h-94v37q-4 -6 -7.5 -10t-8.5 -9q-15 -14 -36 -22q-1 0 -1 -0.5t-1 -0.5h-1q-12 -4 -28 -4h-4
q-51 2 -82.5 34.5t-31.5 104.5v145q0 30 0.5 58t0.5 50t0.5 35t0.5 14q0 19 -7.5 24.5t-12.5 5.5q-2 0 -3 -0.5t-2 -0.5h-2v25h120v-25h-1q-1 0 -2 0.5t-3 0.5q-6 0 -12 -4.5t-7 -20.5v-53t-0.5 -67t-0.5 -70.5v-65v-49.5v-23v-1q2 -51 12.5 -72t34.5 -22h4q30 0 53 24
t28 81q0 48 0.5 102.5t0.5 101.5v77v32q0 19 -6 24.5t-12 5.5q-2 0 -3 -0.5t-2 -0.5h-2v25h120v-25z" />
    <glyph glyph-name="v" unicode="v" horiz-adv-x="326" 
d="M318 487v-24q-9 -1 -17 -4t-14.5 -9t-8.5 -16q0 -1 -4 -20t-11.5 -50t-16.5 -69.5t-18 -78.5q-23 -96 -51 -216h-45q-25 120 -44 216q-8 40 -16.5 78.5t-14 69.5t-10 50t-4.5 20q-1 10 -7.5 16t-12.5 9q-9 3 -18 4v24h129l-1 -24q-8 -1 -13 -4q-4 -3 -6.5 -9t-0.5 -16
q0 -1 6 -32.5t15 -79t20 -101.5t21 -100q11 46 23.5 100t23 101.5t17 79t6.5 32.5q2 10 -0.5 16t-6.5 9q-5 3 -13 4l1 24h92z" />
    <glyph glyph-name="w" unicode="w" horiz-adv-x="493" 
d="M484 488v-23q-9 2 -17 0q-6 -1 -12 -4.5t-9 -14.5l-4 -19.5t-11.5 -51t-16.5 -72t-20 -81.5l-52 -222h-45q-8 40 -18 83q-6 37 -15 83t-20 92q-10 -46 -20.5 -92t-19.5 -83q-10 -43 -19 -83h-45q-26 124 -46 222q-9 41 -17.5 81.5t-14.5 72t-10.5 51l-4.5 19.5
q-1 11 -7 14.5t-12 4.5q-7 2 -17 0v23h130v-23q-9 2 -15 0q-4 -1 -7.5 -4.5t-1.5 -14.5l3 -16t8 -42t11.5 -60t14 -69.5t14.5 -71.5t14 -66q12 46 24.5 101t23.5 106q-11 52 -17.5 84.5t-7.5 33.5q-2 11 -8 14.5t-12 4.5q-7 2 -16 0v23h128v-23q-8 2 -14 0q-4 -1 -7.5 -4.5
t-0.5 -14.5l2 -16t7.5 -42t12 -60t13.5 -69.5t14.5 -71.5t14.5 -66q8 30 16.5 66t16.5 71.5t15.5 69.5t13 60t9 42l3.5 16q2 11 -1.5 14.5t-6.5 4.5q-6 2 -15 0v23h94z" />
    <glyph glyph-name="x" unicode="x" horiz-adv-x="356" 
d="M331 467q-7 1 -14 -2q-7 -1 -13 -5.5t-11 -14.5l-7.5 -16t-19.5 -41.5t-27.5 -58t-31.5 -68.5q14 -39 28.5 -78t26 -69.5t19 -49.5t7.5 -20q4 -11 11 -15t15 -6q8 -3 17 -2v-21h-127v21q7 -1 12 2q4 2 5.5 6t-2.5 15l-4.5 11t-11 29.5t-15.5 43.5t-20 52
q-14 -27 -25 -51.5t-20 -42.5t-14 -28.5t-5 -11.5q-5 -10 -3.5 -14.5t5.5 -6.5q3 -3 10 -3v-22h-88v22q8 0 16 3q8 2 15 6.5t12 14.5q0 1 6.5 15.5t18.5 38t26 55t30 65.5q-15 41 -29.5 81t-27 72.5t-20 52.5l-7.5 20q-5 11 -11.5 15t-14.5 5q-7 2 -17 0v23h127v-23
q-7 2 -11 0q-5 -1 -7 -5t3 -15l4.5 -11.5t12 -31.5t17 -46t20.5 -56q14 30 26.5 56t21.5 45.5t15 31l6 11.5q5 10 3 14.5t-6 5.5q-4 3 -11 2v23h85v-23z" />
    <glyph glyph-name="y" unicode="y" horiz-adv-x="428" 
d="M421 488v-26q-6 3 -14 -1q-7 -3 -14.5 -13t-13.5 -34q-1 -2 -8 -24t-16.5 -58t-21.5 -81.5t-26 -93.5t-27 -94.5t-23.5 -85t-19 -64.5t-11.5 -32q-13 -28 -36 -48.5t-54 -22.5q-8 0 -16 1t-17 4q-14 4 -27.5 14.5t-22.5 26t-12.5 34t2.5 39.5q0 1 0.5 1t0.5 1q0 2 1 3
q5 18 20 27t33 4t27 -20.5t5 -33.5q-4 -17 -19 -26t-32 -6q1 -33 29 -41q16 -5 27 5.5t21 28.5q2 3 12 40t25 88q-8 29 -19.5 72.5t-25 89.5t-26 92t-22.5 83t-17.5 62t-7.5 27q-7 20 -15 29.5t-16 10.5q-8 3 -18 -1v23h101v-23q-9 1 -14 -2q-4 -3 -4.5 -12t5.5 -28l6 -19.5
t14 -50.5t18 -70t20.5 -79t20.5 -77.5t17 -64.5q17 56 33.5 117.5t30 112.5l22.5 85t10 37q5 24 2.5 34t-7.5 13q-7 4 -17 1v26h137z" />
    <glyph glyph-name="zero" unicode="0" horiz-adv-x="327" 
d="M96 351q0 -86 2 -148.5t9 -104t20 -61.5t35 -20t35 20t20 61.5t9.5 104t2.5 148.5q0 85 -2 147.5t-9 103t-20 60.5t-36 20q-22 0 -35 -20t-20 -60.5t-9 -103t-2 -147.5v0zM162 709q40 0 66 -21.5t42 -66t22.5 -112.5t6.5 -162t-8 -161t-24.5 -110t-42.5 -63.5t-62 -20.5
q-35 0 -60.5 20t-42 62.5t-24.5 108.5t-8 159q0 88 6.5 156.5t22 115.5t41.5 71t65 24z" />
    <glyph glyph-name="one" unicode="1" horiz-adv-x="162" 
d="M118 54q0 -14 4 -20.5t8 -7.5q6 -3 14 0v-26h-130v26q9 -3 18 0q6 1 12 7.5t6 20.5v567q0 15 -6 21t-12 8q-9 3 -18 0v25q19 1 36 6q13 5 24.5 12.5t11.5 20.5h32v-54v-606z" />
    <glyph glyph-name="two" unicode="2" horiz-adv-x="352" 
d="M324 107q4 -30 -1 -55q-4 -21 -21 -39.5t-54 -22.5q-32 -3 -51.5 3.5t-34.5 16t-27.5 18t-29.5 8.5q-18 0 -27 -5t-14 -13q-6 -9 -7 -17h-29q0 23 3 46q2 20 7 44t16 47q9 22 23.5 45.5t30 46t30.5 43t28 35.5q22 26 35 57t19.5 64t7.5 68t0 70q-1 29 -2.5 53.5t-9 42
t-22 27.5t-38.5 10q-26 0 -44 -12t-29 -29q-8 -17 -6 -32.5t17 -20.5q4 0 5 -1q16 -4 27 -17t11 -31q0 -22 -14.5 -37t-35.5 -15q-23 0 -37 15t-19.5 37t-1 49.5t17 51t35 41.5t53.5 24q47 8 82 -2.5t57 -35t32 -58t9 -71.5q-1 -26 -5 -56t-15 -61.5t-31 -65.5t-52 -68
q-60 -65 -100 -125.5t-56 -126.5q20 29 45 34t50 -2t48.5 -20.5t40.5 -19.5q24 -9 34.5 -0.5t14.5 22.5q5 17 5 40h30z" />
    <glyph glyph-name="three" unicode="3" horiz-adv-x="339" 
d="M231 357q35 -15 58 -64t23 -127q0 -37 -10 -69t-29.5 -55.5t-47.5 -37.5t-64 -14q-8 0 -14 1t-13 3q-30 6 -52.5 23.5t-35 41t-17 49.5t1 47.5t19 35.5t36.5 14q21 0 35.5 -14.5t14.5 -35.5q0 -17 -11 -29.5t-27 -17.5q-1 -1 -4 -1q-16 -4 -18 -19.5t6 -31.5
q11 -16 28.5 -27.5t43.5 -11.5q25 0 39 9.5t21 26.5t9.5 40.5t3.5 52.5v60t-5.5 59t-16.5 48t-32 30q-3 1 -12.5 1.5t-19.5 0.5q-13 0 -28 -1v27q16 -1 28 -1q10 0 19.5 0.5t12.5 2.5q20 7 31 28t16.5 49t6 59.5t0.5 59.5q-1 29 -3.5 52.5t-9.5 41t-21 27t-39 9.5
q-26 0 -43.5 -11.5t-28.5 -27.5q-8 -17 -6 -31.5t18 -19.5q1 -1 4 -1q16 -4 27 -17t11 -31q0 -20 -14.5 -34.5t-35.5 -14.5q-23 0 -36.5 14t-19 36t-1 48t17 49t34.5 40t53 23q7 2 13 3t14 2q73 0 112 -50.5t39 -134.5q0 -27 -6 -56.5t-17 -55t-26 -45t-32 -27.5z" />
    <glyph glyph-name="four" unicode="4" horiz-adv-x="323" 
d="M247 243v-189q0 -15 4.5 -21t8.5 -7q5 -3 14 0v-26h-131v26q9 -3 17 0q7 1 12.5 7t5.5 21v189h-175v30l206 441h38v-447h59v-24h-59zM178 592l-151 -325h151v325z" />
    <glyph glyph-name="five" unicode="5" horiz-adv-x="331" 
d="M160 446q36 0 64 -14t47.5 -38t29.5 -57.5t10 -71.5v-92q0 -38 -10 -71t-29.5 -57t-47.5 -38.5t-64 -14.5q-8 1 -14 2t-13 3q-30 6 -52.5 24t-35 41.5t-17 50.5t1 49t19 36.5t36.5 14.5q21 0 35.5 -15t14.5 -36q0 -18 -11 -31t-27 -17q-1 -1 -4 -1q-16 -5 -18 -20.5
t6 -32.5q12 -16 29 -28t43 -12q25 0 39 10t21 27.5t9.5 41.5t3.5 54q1 13 1 27.5v29.5v17.5v20.5t-0.5 21t-0.5 17q-1 29 -3.5 53.5t-9.5 42t-21 27.5t-39 10q-26 0 -43 -12t-29 -28l-4 -8h-22v348q46 0 82 -5t62 -8t41 1t18 21h23q1 -17 -4 -34q-5 -14 -15.5 -28t-34.5 -22
q-16 -5 -36.5 -6.5t-40.5 -1t-39.5 2.5t-33.5 5v-227q13 10 33.5 19.5t49.5 9.5z" />
    <glyph glyph-name="six" unicode="6" horiz-adv-x="350" 
d="M190 417q24 -2 49 -18t45 -46t31 -72.5t8 -95.5q-2 -41 -11 -72t-24 -53q-3 -9 -11 -17q-21 -26 -47 -39q-10 -6 -20 -10t-20 -4q-36 0 -63 15t-45.5 40.5t-29.5 58.5t-14 67q-3 35 -6 84t-4 101t1.5 102.5t8.5 85.5t17 69t31 59t51.5 39t79.5 9q30 -3 51 -19t31.5 -38.5
t12 -48t-5.5 -47t-22.5 -35.5t-37.5 -14q-21 0 -36 15t-15 35q0 18 10.5 32t26.5 18q3 0 4 1q16 5 22 18t1.5 26t-18 23.5t-38.5 10.5q-24 0 -39.5 -17.5t-25.5 -45.5t-15 -61t-8 -64q-1 -24 -2 -59t-1 -76q30 48 78 43zM188 393q-24 2 -44.5 -18t-31.5 -71q1 -25 1.5 -49.5
t1.5 -47t2 -41t3 -28.5q7 -55 12.5 -82.5t25.5 -35.5q13 -4 26 -6q31 -2 47 39t22 136q3 49 -1 87t-13 64t-22.5 39t-28.5 14z" />
    <glyph glyph-name="seven" unicode="7" horiz-adv-x="333" 
d="M321 714q1 -21 -1 -47q-2 -22 -5 -50t-8 -57q-6 -32 -14.5 -55.5t-20.5 -45t-28 -45.5t-35 -56q-20 -32 -26.5 -72t-6 -78.5t4.5 -72.5t4 -54q2 -40 -12.5 -65.5t-35.5 -25.5q-10 0 -21 3t-21 12.5t-17 28t-9 50.5t5.5 72.5t24.5 86t44.5 93t65.5 91.5q29 36 45.5 71.5
t25 67t10 56.5t1.5 40q-20 -28 -43.5 -35.5t-48 -2.5t-47.5 16t-40 17q-23 9 -35 1t-17 -21q-5 -15 -5 -38h-30v117h101q22 0 38 -5.5t28.5 -12t24 -13t27.5 -6.5q17 0 26 5.5t14 11.5q4 9 5 18h32z" />
    <glyph glyph-name="eight" unicode="8" horiz-adv-x="336" 
d="M26 536q-1 13 0 26.5t5 27.5q4 16 12.5 39.5t23.5 43.5t38 34.5t56 14.5q32 0 57 -13t41.5 -32t24.5 -41t7 -43q-2 -61 -27.5 -112t-62.5 -96q69 -78 91.5 -143t8.5 -125q-6 -21 -14.5 -41t-21.5 -36.5t-31.5 -28.5t-44.5 -16q-5 -2 -9 -2h-9h-3h-3q-6 -1 -15 1
q-21 2 -37.5 8.5t-29.5 17.5q-31 25 -44 65q-3 14 -4 28q-3 29 -0.5 56.5t12 56t28.5 58.5t48 65q-48 54 -71.5 97.5t-25.5 89.5zM234 52q29 33 27.5 68.5t-18 69.5t-42 63.5t-46.5 52.5l-5 6q-20 -24 -40 -56.5t-30.5 -68t-7.5 -71t29 -66.5q12 -12 30.5 -20.5t36.5 -8.5h1
q18 1 36.5 9.5t28.5 21.5zM100 666q-26 -30 -26 -65.5t15 -70t39 -66.5t46 -56q20 26 39 60t29 69t6.5 69t-28.5 62q-10 10 -25 18t-35 8q-21 0 -35.5 -8.5t-24.5 -19.5z" />
    <glyph glyph-name="nine" unicode="9" horiz-adv-x="352" 
d="M319 541q3 -34 4.5 -78.5t1 -92.5t-2.5 -95.5t-7 -85.5q-2 -11 -6.5 -30.5t-13 -42.5t-22 -46.5t-32.5 -42t-44 -28t-56 -8.5q-31 3 -51.5 19.5t-31.5 39t-12.5 48t5.5 47t23 36t38 14.5q20 0 35 -15.5t15 -36.5q0 -18 -10.5 -31t-26.5 -17q-1 0 -2 -0.5t-3 -0.5
q-15 -6 -20.5 -18.5t-1.5 -26t18 -24t38 -10.5q25 0 40 17.5t24.5 45t14.5 60.5t8 65q1 9 2 23.5t1.5 31l1 33t0.5 31.5q-32 -38 -76 -35q-26 2 -52.5 16t-47.5 42.5t-33.5 71.5t-8.5 99q4 49 15.5 85t29.5 60l2 2v1q1 2 1.5 2.5t1.5 2.5q15 16 32 29q13 11 27.5 17.5
t29.5 7.5q36 1 63 -14.5t45 -41.5t29 -58.5t15 -67.5zM171 313q23 -2 42.5 13t32.5 56q0 29 -1 58.5t-2 55.5t-2.5 46.5t-3.5 33.5q-3 25 -6 47t-8.5 38t-16.5 25.5t-31 9.5q-16 0 -28.5 -10t-21 -31t-14 -56.5t-9.5 -85.5q-4 -53 1 -90t14 -62t23.5 -36.5t30.5 -11.5z" />
    <glyph glyph-name="ampersand" unicode="&#x26;" horiz-adv-x="737" 
d="M713 629q9 -31 8 -65t-15.5 -66.5t-44 -61.5t-74.5 -50q-31 -16 -63.5 -24.5t-66.5 -11.5q27 -25 42.5 -59.5t15.5 -77.5q0 -52 -21 -90.5t-52.5 -65.5t-70 -40.5t-71.5 -14.5q-35 -2 -81 7.5t-88 34.5t-72.5 70t-33.5 114t14 120.5t45 85.5t61.5 52t64.5 22
q-22 20 -27 55t6.5 68t40 58t73.5 27t69 -12.5t31 -32.5t-0.5 -34.5t-26.5 -17.5t-23.5 8t-4.5 20t-0.5 23.5t-10.5 20.5q-16 8 -35 6t-35 -14t-25.5 -35.5t-7.5 -56.5q3 -33 17.5 -49t30.5 -22q18 -7 41 -6v-23q-23 -1 -49 -6q-22 -4 -48.5 -12.5t-49.5 -25.5
q-24 -16 -40.5 -39.5t-26.5 -53.5t-14.5 -64t-3.5 -70q1 -35 14 -70.5t36.5 -64t57.5 -46t75 -18.5q42 -1 82 13.5t70 40.5t49 58.5t19 66.5q0 50 -17.5 88t-45.5 59q-42 -5 -80.5 -7t-70.5 -7t-54 -16t-31 -34q-14 -34 -11 -60.5t16 -46t32 -30.5t39 -11h5.5h8.5h11h9
q16 3 17 11.5t-4 15.5l-3.5 3.5l-3.5 3.5q-9 13 -9 27q0 19 13 32t32 13t32.5 -13t13.5 -32q0 -8 -5 -19q-9 -26 -27.5 -41t-40 -21t-44.5 -4.5t-40 6.5q-34 12 -54.5 45.5t-20.5 73.5t22 78.5t70 61.5q22 11 46 14l-1 1h4l0.5 0.5t1.5 0.5q19 4 46 8t50 6q30 3 59 6
q69 11 115.5 31.5t74 46.5t38 55t7.5 55q-3 22 -14 41.5t-27.5 33.5t-37.5 20t-41 3q-45 -6 -64.5 -28t-22.5 -47t4.5 -48.5t18.5 -32.5q2 -1 4.5 -3t5.5 -4q1 0 2 -1q-1 0 -1 0.5t-1 0.5q2 -1 3.5 -2t3.5 -1q-2 1 -3 1t-2 1q18 -7 24 0t3 17q0 2 -0.5 4t-1.5 4q-2 7 -2 11
q0 19 13.5 32.5t31.5 13.5q19 0 32 -13.5t13 -32.5q0 -28 -23 -39q-20 -14 -45 -18.5t-47 2.5t-38 26.5t-19 54.5q-3 36 11.5 61.5t39 40t55 18t59.5 -5t51.5 -29t33.5 -52.5z" />
    <glyph glyph-name="space" unicode=" " horiz-adv-x="182" 
 />
    <glyph glyph-name="question" unicode="?" horiz-adv-x="301" 
d="M131 76q17 -2 28 -15t9 -29q-2 -17 -14.5 -27.5t-29.5 -8.5t-27.5 15t-8.5 29q1 17 14 27.5t29 8.5zM116 715q33 6 67 0q29 -4 50 -21t34 -39.5t19 -50t6 -54.5q0 -35 -8 -65.5t-23 -59t-33 -55.5t-38 -53q-15 -18 -24 -37.5t-17 -41.5t-10 -42q-1 -11 -1 -22h-20
q-9 39 -3.5 84.5t23.5 80.5q7 16 16.5 32t18.5 31.5t17 31t12 33.5q10 38 8.5 78t-8.5 78q-4 30 -18 50t-47 20q-27 0 -44 -11.5t-27 -27.5q-9 -17 -6.5 -32.5t17.5 -19.5q1 -1 5 -1q15 -4 22.5 -11.5t7.5 -25.5q0 -21 -12 -34t-32 -13q-21 0 -35 13t-18.5 33.5t-1.5 45
t16.5 46t34.5 39t52 21.5z" />
    <glyph glyph-name="period" unicode="." horiz-adv-x="128" 
d="M68 80q17 -2 28 -15t9 -29q-2 -17 -15 -27.5t-30 -8.5q-16 2 -27 14.5t-9 29.5t15 27t29 9z" />
    <glyph glyph-name="exclam" unicode="!" horiz-adv-x="116" 
d="M100 42q0 -17 -12 -29t-29 -12t-29 12t-12 29q0 16 12 28t29 12t29 -12t12 -28zM100 676q0 -3 -1.5 -26.5t-3.5 -59t-4.5 -80.5t-4.5 -90q-7 -108 -15 -243h-22q-10 135 -15 243l-6 90t-5 80.5t-3.5 59t-1.5 26.5q0 17 12 28.5t29 11.5t29 -11.5t12 -28.5z" />
    <glyph glyph-name="dollar" unicode="$" horiz-adv-x="300" 
d="M163 398q29 -37 51 -69.5t38 -64t23 -65.5t3 -73q-2 -24 -8.5 -46.5t-20.5 -42t-35.5 -33.5t-51.5 -17v-55h-23v55q-5 0 -9 0.5t-8 0.5q-42 8 -64.5 36.5t-28.5 60t7 57t43 25.5q18 0 31 -12t13 -31q0 -12 -9.5 -24t-23.5 -16q-3 0 -4 -1q-13 -3 -15.5 -15.5t5.5 -26.5
q9 -15 24.5 -24.5t38.5 -9.5v299q-36 41 -59 77.5t-36.5 70t-18.5 63t-5 58.5q0 20 8.5 42.5t23 41.5t36.5 33.5t51 18.5v54h23v-52h18q27 -3 47 -16t31.5 -33.5t14.5 -43.5t-1 -42t-16.5 -31t-31.5 -12q-20 0 -32 12t-12 30q0 13 9 24.5t23 15.5q2 0 4 1q13 4 15.5 17
t-5.5 27q-9 13 -25.5 23t-38.5 10v-294q0 -1 1 -3zM60 594q0 -20 5 -38t14 -36t24 -39t36 -48v258q-35 -4 -57.5 -29.5t-21.5 -67.5zM248 112q1 17 -0.5 32t-11.5 33t-27 43t-47 59v-269q36 7 60 33.5t26 68.5z" />
    <glyph glyph-name="numbersign" unicode="#" horiz-adv-x="375" 
d="M368 449h-101l-25 -137h95v-31h-100l-52 -280h-23l51 280h-87l-51 -280h-24l52 280h-93v31h98l26 137h-94v30h99l44 238h23l-43 -238h86l44 238h23l-43 -238h95v-30zM219 312l25 137h-87l-25 -137h87z" />
    <glyph glyph-name="comma" unicode="," horiz-adv-x="122" 
d="M45 7q-21 9 -21 33q0 16 11.5 27.5t26.5 11.5q10 0 18 -4.5t13 -10.5v-1l1 -1q12 -16 12.5 -37t-7 -45t-21.5 -45.5t-33 -38.5l-17 4q20 24 31 41t13.5 29.5t-2.5 20t-16 12.5l-9 3v1z" />
    <glyph glyph-name="colon" unicode=":" horiz-adv-x="138" 
d="M110 351q0 -18 -11.5 -29.5t-28.5 -11.5q-18 0 -30 11.5t-12 29.5t12 29.5t30 11.5q17 0 28.5 -11.5t11.5 -29.5zM110 125q0 -18 -11.5 -29.5t-28.5 -11.5q-18 0 -30 11.5t-12 29.5q0 17 12 29t30 12q17 0 28.5 -12t11.5 -29z" />
    <glyph glyph-name="semicolon" unicode=";" horiz-adv-x="126" 
d="M43 86q-9 5 -15.5 14.5t-6.5 21.5q0 17 12 28t28 11q20 0 32 -14v-1q1 0 1 -2q12 -15 13 -37.5t-6.5 -46.5t-22.5 -47t-35 -41l-18 4q21 26 32.5 44t14 30.5t-3 20.5t-15.5 12q-2 1 -5 1.5t-5 1.5zM106 347q0 -17 -12 -29.5t-30 -12.5q-17 0 -29.5 12.5t-12.5 29.5
t12.5 29t29.5 12q18 0 30 -12t12 -29z" />
    <glyph glyph-name="braceleft" unicode="{" horiz-adv-x="184" 
d="M113 474q0 -24 -1 -43t-7 -32.5t-19.5 -23.5t-37.5 -16q24 -7 37.5 -16.5t19.5 -24t7 -33.5t1 -43v-152q0 -45 12 -71t47 -26v-22q-29 0 -50 4t-35.5 18t-21 38t-6.5 65v160q0 41 -11.5 65.5t-40.5 33.5v6q29 8 40.5 33.5t11.5 65.5v160q0 40 6.5 65.5t21 38.5t35.5 18
t50 5v-24q-35 0 -47 -25t-12 -73v-151z" />
    <glyph glyph-name="braceright" unicode="}" horiz-adv-x="182" 
d="M69 474v151q0 48 -11 73t-46 25v24q27 0 48.5 -5t35 -18t20.5 -38.5t7 -65.5v-160q0 -40 11.5 -65.5t41.5 -33.5v-6q-31 -9 -42 -33.5t-11 -65.5v-160q0 -41 -7 -65t-20.5 -38t-35 -18t-48.5 -4v22q35 0 46 26t11 71v152q0 24 0.5 43t7.5 33.5t20 24t38 16.5
q-25 6 -38 16t-20 23.5t-7.5 32.5t-0.5 43z" />
    <glyph glyph-name="asterisk" unicode="*" horiz-adv-x="233" 
d="M205 579q9 -6 12 -15.5t-3 -18.5q-4 -10 -14 -12t-19 3q-4 2 -11 9t-16 16.5t-18.5 19.5t-17.5 17q2 -11 6 -24.5t8 -25.5t6.5 -21.5t2.5 -13.5q0 -10 -7.5 -17.5t-17.5 -7.5t-17.5 7.5t-7.5 17.5q0 4 3 14t7 22t8 25t6 24q-9 -7 -18.5 -17t-18 -19.5t-16 -16.5t-10.5 -9
q-9 -5 -19 -3t-16 12q-3 9 -1.5 18.5t11.5 15.5q4 1 14 4t22.5 5.5t26 6t23.5 6.5q-10 3 -23.5 7t-26 6.5t-22.5 5t-14 4.5q-10 6 -11.5 15.5t1.5 18.5q6 9 16 12t19 -3q3 -2 10.5 -9.5t16 -17t18 -19.5t18.5 -17q-2 11 -6 24t-8 25.5t-7 22.5t-3 15q0 9 7.5 16t17.5 7
t17.5 -7t7.5 -16q0 -5 -2.5 -15t-6.5 -22.5t-8 -25.5t-6 -24q9 7 18.5 17t18 19.5t15.5 17t11 9.5q9 6 19 3t14 -12q6 -9 3 -18.5t-12 -15.5q-3 -2 -13 -4.5t-22.5 -5t-26 -6.5t-23.5 -7q10 -3 23.5 -6.5t26 -6t22.5 -5.5t13 -4z" />
    <glyph glyph-name="equal" unicode="=" horiz-adv-x="395" 
d="M35 402h325v-31h-325v31zM35 241h325v-30h-325v30z" />
    <glyph glyph-name="plus" unicode="+" horiz-adv-x="330" 
d="M328 305v-30h-148v-149h-30v149h-147v30h147v146h30v-146h148z" />
    <glyph glyph-name="section" unicode="&#xa7;" horiz-adv-x="302" 
d="M277 250q-2 -25 -11.5 -50.5t-30.5 -43.5q9 -35 8 -65q0 -21 -9 -42.5t-26.5 -39.5t-42 -27.5t-56.5 -7.5q-23 2 -39 14.5t-25.5 28.5t-13 35t0.5 35.5t14 26.5t27 10q16 0 27 -10t11 -25q0 -12 -8 -21t-20 -13h-4q-10 -4 -12 -15t5 -22t20 -19.5t33 -8.5q37 0 61 21.5
t23 62.5q0 20 -5 36t-15 34t-27 40.5t-39 53.5q-24 31 -42.5 58.5t-31.5 54t-19.5 55t-3.5 60.5q2 26 12 51t31 43q-5 19 -7 35t-2 31q0 21 9 43t26.5 39.5t42 27.5t56.5 7q23 -2 40 -14.5t26.5 -29t12 -35.5t-1 -35t-14 -26.5t-26.5 -10.5q-15 0 -26.5 10.5t-11.5 24.5
q0 13 7.5 22t20.5 12q1 0 1.5 0.5t1.5 0.5q11 3 13 14t-4 23q-8 12 -21.5 20t-31.5 8q-37 0 -61.5 -22t-24.5 -63q0 -19 5 -35.5t15.5 -34.5t26.5 -40.5t39 -53.5q24 -32 43 -59t32 -53.5t19 -55t3 -60.5zM143 318q34 -39 54 -73.5t31 -64.5q21 21 24 57q0 17 -2.5 30.5
t-12 31t-27.5 41t-48 58.5q-35 41 -55.5 74.5t-31.5 64.5q-10 -11 -15.5 -25.5t-6.5 -32.5q-2 -16 0.5 -29.5t12 -31t28 -41.5t49.5 -59z" />
    <glyph glyph-name="questiondown" unicode="&#xbf;" horiz-adv-x="300" 
d="M169 640q-17 1 -28 14t-9 29q2 17 14.5 27.5t29.5 8.5q16 -2 27 -14t9 -29q-2 -18 -14.5 -28t-28.5 -8zM184 0q-33 -6 -66 0q-30 6 -50.5 22t-34 39t-19 50.5t-5.5 54.5q0 34 8 64.5t22 59t32 55t39 53.5q15 18 24 38t17 42q5 9 6 20.5t3 21.5q1 11 2 21h21q8 -38 3 -84
t-23 -81q-8 -16 -17 -31t-18 -31.5t-17.5 -32.5t-12.5 -33q-10 -38 -8.5 -77.5t8.5 -78.5q4 -29 18 -49t48 -20q26 0 43 11.5t28 28.5q8 16 6 31t-18 20q-1 1 -4 1q-16 4 -23.5 11.5t-7.5 25.5q0 20 11.5 33.5t32.5 13.5q22 0 35.5 -13.5t18.5 -33.5t1 -44.5t-16.5 -46.5
t-34 -38.5t-52.5 -22.5z" />
    <glyph glyph-name="exclamdown" unicode="&#xa1;" horiz-adv-x="116" 
d="M100 676q0 -18 -12 -29t-29 -11t-29 11t-12 29q0 17 12 28.5t29 11.5t29 -11.5t12 -28.5zM100 42q0 -17 -12 -29t-29 -12t-29 12t-12 29q0 3 1.5 26t3.5 58.5t5 80.5l6 90q5 109 15 244h22q8 -135 15 -244q2 -45 4.5 -90t4.5 -80.5t3.5 -58.5t1.5 -26z" />
    <glyph glyph-name="hyphen" unicode="-" horiz-adv-x="226" 
d="M192 304v-39h-157v39h157z" />
    <glyph glyph-name="backslash" unicode="\" horiz-adv-x="212" 
d="M27 714l8 -30.5t20 -81.5t29 -114.5t34 -132.5q41 -157 92 -358h-24l-184 717h25z" />
    <glyph glyph-name="slash" unicode="/" horiz-adv-x="213" 
d="M211 716l-183 -717h-26q51 200 92 358q17 68 33.5 132t30 115t21.5 81.5l8 30.5h24z" />
    <glyph glyph-name="bracketright" unicode="]" horiz-adv-x="158" 
d="M-2 685v22h130v-707h-130v22q29 0 44.5 12.5t22 32t7 42.5t0.5 44v401v44t-6.5 42.5t-22 32t-45.5 12.5z" />
    <glyph glyph-name="bracketleft" unicode="[" horiz-adv-x="158" 
d="M130 685q-30 0 -45.5 -12.5t-22 -32t-6.5 -42.5v-44v-401q0 -21 0.5 -44t7 -42.5t22 -32t44.5 -12.5v-22h-130v707h130v-22z" />
    <glyph glyph-name="quotedblright" unicode="&#x201d;" horiz-adv-x="252" 
d="M165 641q-20 11 -20 35q0 16 11 26.5t26 10.5q20 0 30 -14h1q0 -1 0.5 -1.5t0.5 -1.5q11 -15 12 -36t-6.5 -44t-21.5 -45t-33 -39l-17 5q20 23 30.5 40.5t13 29.5t-2 20t-15.5 12q-2 0 -4.5 0.5t-4.5 1.5zM51 641q-10 5 -15.5 14t-5.5 21q0 16 11.5 26.5t27.5 10.5
q18 0 29 -14q0 -1 2 -3q11 -15 11.5 -36t-7 -44t-21 -45t-32.5 -39l-17 5q20 23 30 40.5t12.5 29.5t-1.5 20t-16 12q-1 0 -3.5 0.5t-4.5 1.5z" />
    <glyph glyph-name="quotedblleft" unicode="&#x201c;" horiz-adv-x="252" 
d="M88 606q20 -10 20 -33q0 -16 -11 -27.5t-26 -11.5q-11 0 -18.5 4t-12.5 11v1q-2 0 -2 1q-10 15 -11 36.5t6 44.5t21.5 45t33.5 38l17 -3q-40 -49 -44 -71t17 -31q6 -2 10 -4zM202 606q21 -10 21 -33q0 -16 -11.5 -27.5t-26.5 -11.5q-10 0 -17.5 4t-13.5 11v1l-2 1
q-10 15 -10.5 36.5t6.5 44.5t21 45t33 38l17 -3q-39 -49 -43 -71t17 -31q5 -2 9 -4z" />
    <glyph glyph-name="quoteleft" unicode="&#x2018;" horiz-adv-x="121" 
d="M77 609q21 -11 21 -33q0 -16 -11.5 -27.5t-26.5 -11.5q-9 0 -17.5 4t-11.5 10v1q-2 0 -2 2q-12 14 -13 36t7 45t21.5 45t32.5 38l17 -5q-40 -47 -43 -69t18 -31z" />
    <glyph glyph-name="quoteright" unicode="&#x2019;" horiz-adv-x="120" 
d="M44 641q-21 11 -21 35q0 16 11.5 26.5t26.5 10.5q20 0 30 -14h1q0 -1 0.5 -1.5t0.5 -1.5q11 -15 12 -36t-6.5 -44t-21.5 -45t-33 -39l-17 5q20 23 30.5 40.5t13 29.5t-2 20t-14.5 12q-3 0 -5.5 0.5t-4.5 1.5z" />
    <glyph glyph-name="greater" unicode="&#x3e;" horiz-adv-x="380" 
d="M379 315v-20l-347 -120v21q43 14 87.5 30t86.5 30.5t79 27t63 22.5q-26 9 -63 21.5t-79 27.5t-86.5 30.5t-87.5 29.5v21z" />
    <glyph glyph-name="less" unicode="&#x3c;" 
d="M348 433v-21q-43 -14 -87.5 -29t-86.5 -30.5t-78.5 -27.5t-64.5 -22q28 -9 64.5 -22t78.5 -27.5t86.5 -30.5t87.5 -30v-21l-347 121v20z" />
    <glyph glyph-name="parenright" unicode=")" horiz-adv-x="160" 
d="M80 603q0 43 -22 66.5t-54 23.5v20q26 0 49 -3.5t39.5 -16.5t26.5 -35t10 -60v-483q0 -37 -10 -60.5t-26.5 -35t-39.5 -16t-49 -4.5v22q32 0 54 22.5t22 66.5v493z" />
    <glyph glyph-name="parenleft" unicode="(" horiz-adv-x="162" 
d="M82 109q0 -43 22 -66t54 -23v-22q-26 0 -49 4.5t-40 16t-27 35t-10 60.5v484q0 37 10 59t27 35t40 16.5t49 3.5v-20q-32 0 -54 -23.5t-22 -66.5v-493z" />
    <glyph glyph-name="florin" unicode="&#x192;" horiz-adv-x="436" 
d="M354 713q16 0 30 -7t25 -19t15.5 -29.5t2.5 -37.5v-1q0 -1 -0.5 -1.5t-0.5 -1.5q-2 -18 -17 -31t-33 -13t-29 13t-8 31q2 12 10.5 23t22.5 16q18 7 8 20v1l-6 6q-7 9 -21 9q-17 0 -27 -13t-17.5 -34t-11 -47t-7.5 -53l-3 -13q-2 -8 -3 -17.5t-3 -20.5h75v-28h-78
q-5 -34 -11.5 -78t-13.5 -89.5t-13.5 -89.5t-12 -78.5t-8.5 -56l-3 -21.5q-2 -9 -4 -20t-3 -12q-4 -30 -14.5 -54t-26.5 -42t-38 -28.5t-47 -10.5q-16 0 -30 7.5t-25 19.5t-15.5 29t-1.5 38v1v4q2 18 17 30.5t33 12.5t29 -12.5t8 -30.5q-2 -13 -10.5 -23.5t-20.5 -16.5
q-18 -7 -10 -21l1 -1q1 -2 5 -5q7 -8 22 -8q16 0 26.5 12.5t17.5 33t11 47t8 53.5q12 78 23 153q4 32 9.5 66.5t10.5 68t9.5 65.5t8.5 57h-72v28h76q5 24 6.5 38.5t1.5 15.5q2 10 4 21l2 11q4 28 15 53t27.5 43t38 28t46.5 10z" />
    <glyph glyph-name="oe" unicode="&#x153;" horiz-adv-x="532" 
d="M368 494q24 0 47.5 -8t42.5 -24.5t31.5 -43t12.5 -63.5v-101v-4v-24h-200v-91q0 -62 20.5 -88.5t54.5 -25.5q19 0 37.5 5t32.5 19t23 38t9 63h23v-13q0 -29 -6.5 -53t-21.5 -42t-38.5 -28.5t-58.5 -11.5q-30 -1 -59.5 12.5t-51.5 37.5q-19 -22 -47 -36t-55 -14
q-23 0 -47 9t-43 25.5t-31 41.5t-12 57v216q0 37 12 63.5t31 43t43 24.5t47 8q26 0 53 -9.5t47 -30.5q20 25 48 36.5t56 11.5zM230 327q0 38 -4.5 63.5t-13 41t-20.5 22t-29 6.5q-15 0 -27 -6.5t-20 -22t-12.5 -41t-4.5 -63.5v-169q0 -77 16.5 -107.5t47.5 -30.5
q32 0 49.5 30.5t17.5 107.5v169zM434 333q0 38 -5 64.5t-13.5 42t-21 21.5t-27.5 6q-16 0 -28.5 -6t-20.5 -21.5t-11.5 -42t-3.5 -64.5v-79h131v79z" />
    <glyph glyph-name="integral" unicode="&#x222b;" horiz-adv-x="344" 
d="M334 630q0 -1 -1 -2q1 -1 1 -4q0 -18 -13 -30.5t-31 -12.5t-31 12.5t-13 30.5q0 29 26 40q16 7 6 21v1l-6 6q-9 6 -25 8q-15 0 -23.5 -12.5t-12 -33t-4 -47t-0.5 -53.5v-4v-71.5t-0.5 -83t-0.5 -87.5v-84q-1 -97 -1 -197q0 -11 -0.5 -24t-0.5 -14q0 -29 -7 -53
t-20.5 -42.5t-34 -28.5t-46.5 -10q-15 0 -30.5 6.5t-27.5 19t-19.5 29.5t-7.5 38q0 1 1 1q0 2 -0.5 2.5l-0.5 0.5q0 19 12 31t30 12t31 -12t13 -31q0 -13 -6.5 -23.5t-19.5 -14.5q-16 -9 -5 -21v-1q3 -4 5 -7q9 -6 25 -8q15 0 23.5 12.5t13 33.5t5 47t0.5 54q-1 1 -1 3v97
t0.5 112.5t0.5 113v99v71.5v30v1q0 10 0.5 23t0.5 14q0 29 7.5 53.5t21 42.5t33.5 28.5t46 10.5q15 0 30.5 -7t28 -19.5t20.5 -29t8 -37.5z" />
    <glyph glyph-name="ae" unicode="&#xe6;" horiz-adv-x="531" 
d="M365 493q25 0 48.5 -7.5t42.5 -24.5t31.5 -43.5t12.5 -63.5v-101v-4v-24h-201v-90q0 -63 21.5 -89.5t53.5 -25.5q19 0 38 5t33 19t23 38t9 63h22v-13q0 -28 -6 -52.5t-21.5 -42.5t-39 -28.5t-57.5 -11.5t-69 17.5t-55 52.5q-17 -29 -48 -49.5t-63 -20.5q-41 0 -70 28
q-17 16 -28 39t-13 54q-1 5 -1 13v2q2 38 28 72.5t70 61.5q29 19 49 33t31.5 28t16.5 31.5t5 43.5q-6 34 -22 48.5t-40 14.5q-26 0 -42.5 -6t-26.5 -15t-15 -18.5t-6 -16.5q-2 -4 -2.5 -13.5t9.5 -9.5q24 0 34 -11t9 -25t-10 -25t-24 -11q-25 0 -36 14.5t-13 34.5t3.5 40
t11.5 30q18 29 46.5 41.5t60.5 12.5q26 0 52 -10.5t46 -30.5q21 24 48 35t54 11zM229 87q1 2 2 6l2 8q-1 9 -1 18v19v165q-4 -4 -9 -6.5t-9 -7.5q-29 -22 -50 -37t-35.5 -31t-21.5 -34.5t-9 -45.5q-1 -5 -1 -8.5v-8.5q1 -38 21 -59t56 -21q12 0 21 4.5t16 11t12 14.5t6 13z
M432 333q0 37 -5 63.5t-13.5 42t-21 21.5t-27.5 6q-16 0 -28 -6t-20.5 -21.5t-12 -42t-3.5 -63.5v-80h131v80z" />
    <glyph glyph-name="quotesingle" unicode="'" horiz-adv-x="95" 
d="M24 614q-2 20 -9 33t-7 30t8.5 29.5t27.5 12.5q17 0 26 -12.5t9 -29.5t-6.5 -30t-9.5 -33q-2 -10 -3 -23t-3 -25l-4 -28h-9h-10l-4 28q-2 12 -3.5 25t-2.5 23z" />
    <glyph glyph-name="quotedbl" unicode="&#x22;" horiz-adv-x="228" 
d="M42 607q-3 20 -9 34t-6 31t8.5 28.5t26.5 11.5q17 0 26 -11.5t9 -28.5t-6 -31t-10 -34q-2 -9 -3.5 -22.5t-2.5 -24.5q-2 -14 -3 -28h-10h-9l-4 28q-2 11 -3.5 24.5t-3.5 22.5zM147 607q-3 20 -9 34t-6 31t8.5 28.5t26.5 11.5q17 0 26 -11.5t9 -28.5t-6.5 -31t-9.5 -34
q-2 -9 -3.5 -22.5t-2.5 -24.5l-4 -28h-9h-10l-4 28q-2 11 -3 24.5t-3 22.5z" />
    <glyph glyph-name="asciitilde" unicode="~" horiz-adv-x="292" 
d="M24 338q0 16 3.5 31t11 26t20 17.5t31.5 6.5t39.5 -9.5t39.5 -19.5t36.5 -16t27.5 -2q8 4 11.5 10t5.5 11q1 7 1 13h16q0 -17 -3 -31t-11 -25t-20.5 -17t-31.5 -6t-39 9.5t-39.5 19.5t-36.5 16t-29 0q-7 -3 -10.5 -9.5t-5.5 -11.5q-2 -6 -1 -13h-16z" />
    <glyph glyph-name="approxequal" unicode="&#x2248;" horiz-adv-x="350" 
d="M324 436q-2 -34 -20.5 -59t-59.5 -25q-24 0 -49 12t-49 24.5t-45 20.5t-34 0q-11 -3 -15 -10.5t-6 -13.5q-3 -9 -1 -16h-20q4 34 22 58t61 24q22 0 47 -12t49 -23.5t45 -19.5t35 -2q9 5 14 11.5t6 14.5q2 7 1 16h19zM324 307q-2 -34 -20.5 -58.5t-59.5 -24.5
q-24 0 -49 11.5t-49 24t-45 20.5t-34 0q-11 -4 -15 -11t-6 -13q-3 -9 -1 -17h-20q4 35 22 59t61 24q22 0 47 -12t49 -23.5t45 -20t35 -1.5q9 5 14 11.5t6 14.5q2 7 1 16h19z" />
    <glyph glyph-name="ellipsis" unicode="&#x2026;" horiz-adv-x="511" 
d="M75 77q17 -2 27 -14.5t8 -28.5q-1 -15 -13.5 -25.5t-28.5 -8.5q-15 2 -25.5 14.5t-8.5 27.5q2 16 13.5 26.5t27.5 8.5zM259 77q15 -2 25.5 -14.5t8.5 -28.5q-2 -15 -14 -25.5t-27 -8.5q-16 2 -26 14.5t-8 27.5q1 16 13.5 26.5t27.5 8.5zM443 77q15 -2 25.5 -14.5
t8.5 -28.5q-1 -15 -13 -25.5t-28 -8.5q-17 2 -26.5 14.5t-8.5 27.5q2 16 14 26.5t28 8.5z" />
    <glyph glyph-name="guillemotright" unicode="&#xbb;" horiz-adv-x="388" 
d="M185 239l96 44q33 15 32.5 30t-31.5 30l-97 45v20l193 -90v-10l-193 -90v21zM34 239l95 44q34 15 33 30t-33 30l-95 45v20l191 -90v-10l-191 -90v21z" />
    <glyph glyph-name="guillemotleft" unicode="&#xab;" horiz-adv-x="387" 
d="M202 217l-192 89v10l192 90v-20l-97 -45q-32 -15 -32.5 -29.5t33.5 -30.5l96 -44v-20zM354 217l-192 89v10l192 90v-20l-96 -45q-32 -15 -33 -29.5t33 -30.5l96 -44v-20z" />
    <glyph glyph-name="at" unicode="@" horiz-adv-x="660" 
d="M341 579q61 0 116 -23t96 -62t64.5 -92.5t23.5 -116.5q0 -48 -21.5 -92t-61.5 -70q-10 -6 -23 -9.5t-27.5 -4t-28 2t-24.5 6.5q-25 10 -39 36t-12 52q-7 -16 -19 -31.5t-27 -28t-32.5 -21t-38.5 -8.5q-39 0 -63.5 21.5t-32 56t2 79t39.5 93.5q29 46 62.5 65.5t65 20
t57.5 -14t40 -32.5l-2 -12q5 12 8 22.5t6 19.5l53 -2q-19 -63 -34 -114q-6 -22 -11.5 -43.5t-9.5 -40t-6 -32.5t0 -19q2 -10 5 -22t12 -17q12 -6 26 -6.5t27.5 3t25.5 10.5t18 16q18 25 29.5 57.5t11.5 63.5q0 57 -22 105.5t-60 84t-87.5 56t-104.5 20.5t-102.5 -25.5
t-81.5 -66.5t-53 -95t-18 -111q0 -44 7.5 -85t28.5 -73t59 -51.5t101 -20.5q32 -1 54 6t35 14q16 11 25 23l14 -24q-13 -14 -30 -23q-15 -10 -37.5 -17t-56.5 -7q-125 0 -193.5 66.5t-68.5 191.5q0 74 25.5 133t69 100.5t100.5 64.5t120 23zM285 375q-19 -29 -27 -62.5
t-7.5 -63t9 -52.5t23.5 -33.5t37 -5t49 33.5q12 14 22.5 24t18.5 19q4 13 8.5 30t10 36t12 39t11.5 38q-9 12 -26.5 30.5t-41 26t-49.5 -3.5t-50 -56z" />
    <glyph glyph-name="percent" unicode="%" horiz-adv-x="416" 
d="M311 299q14 0 29.5 -4.5t27 -15t19.5 -26.5t8 -39v-134q0 -17 -8.5 -33t-19.5 -27t-26.5 -17.5t-29.5 -6.5t-29 6t-26.5 16t-19.5 26t-8 36v133q0 23 8 39t19.5 27t26.5 15.5t29 4.5zM352 200q0 48 -10.5 65t-30.5 17t-30.5 -17t-10.5 -65v-104q0 -49 10.5 -67.5
t30.5 -18.5t30.5 18.5t10.5 67.5v104zM313 716l-184 -720h-25q39 152 74 286q14 57 29.5 116t29 112t24.5 97t19 71q-8 -4 -18 -8.5t-23 -6t-28.5 1.5t-33.5 13q11 -20 11 -47v-135q0 -17 -7.5 -32t-19 -26t-26.5 -17.5t-29 -6.5q-15 0 -30 5.5t-27 16t-19.5 26t-7.5 34.5
v134q0 23 7.5 39t19.5 27t27 15.5t30 4.5h1h2q25 -1 48.5 -11.5t45.5 -17t43 -2t42 30.5h25zM146 617q0 48 -10.5 65.5t-29.5 17.5q-20 0 -30.5 -17.5t-10.5 -65.5v-104q0 -48 10.5 -67t30.5 -19q19 0 29.5 19t10.5 67v104z" />
    <glyph glyph-name="underscore" unicode="_" horiz-adv-x="439" 
d="M404 29v-29h-369v29h369z" />
    <glyph glyph-name="fi" unicode="&#xfb01;" horiz-adv-x="386" 
d="M335 54q0 -14 3.5 -20.5t8.5 -7.5q6 -3 12 0v-26h-120v26q7 -3 12 0q5 1 9.5 7.5t4.5 20.5v380q0 12 -4.5 18.5t-9.5 8.5q-5 4 -12 3h-86v-410q0 -14 4 -20.5t9 -7.5q5 -3 12 0v-26h-121v26q8 -3 13 0q4 1 9 7.5t5 20.5v410h-70v27h70v50q0 9 0.5 23t0.5 15q0 38 12 64.5
t33 42t47.5 21.5t52.5 6q54 0 80.5 -25.5t26.5 -67.5v-1v-3q0 -18 -13.5 -31.5t-31.5 -13.5t-31 13.5t-13 31.5q0 27 26 39q16 6 6 21v0q-3 4 -6 6t-8 4t-12 3t-13.5 2t-10.5 1q-16 0 -30 -5t-24.5 -20.5t-17 -45t-6.5 -78.5q0 -1 0.5 -1.5l0.5 -0.5v-50h182v-437z" />
    <glyph glyph-name="fl" unicode="&#xfb02;" horiz-adv-x="375" 
d="M321 54q0 -14 4.5 -20.5t9.5 -7.5q4 -3 12 0v-26h-120v26q7 -3 13 0q4 1 8 7.5t4 20.5v606q0 14 -4.5 19.5t-10.5 8.5q-6 4 -14 4h-34q-15 0 -23.5 -13.5t-13 -34.5t-4.5 -47v-53v-3v-54h59v-27h-59v-406q0 -14 4.5 -20.5t8.5 -7.5q6 -3 13 0v-26h-121v26q8 -3 14 0
q4 1 8 7.5t4 20.5v406h-64v27h64v54h1q0 10 0.5 24l0.5 14q0 28 7 53t21 43.5t34 28t46 9.5h132v-53v-606z" />
    <glyph glyph-name="guilsinglright" unicode="&#x203a;" horiz-adv-x="227" 
d="M34 237l95 43q34 16 33.5 30.5t-32.5 29.5l-96 45v21l192 -91v-10l-192 -89v21z" />
    <glyph glyph-name="guilsinglleft" unicode="&#x2039;" horiz-adv-x="222" 
d="M192 218l-191 89v10l191 90v-20l-95 -45q-32 -15 -33 -30t33 -30l95 -44v-20z" />
    <glyph glyph-name="acute" unicode="&#xb4;" horiz-adv-x="160" 
d="M16 566l-8 9l61 88q24 35 36 45q9 7 20 7q12 0 21 -8q9 -10 9 -20q0 -18 -26 -37z" />
    <glyph glyph-name="grave" unicode="`" horiz-adv-x="161" 
d="M30 650q-25 19 -25 37q0 10 8 20q10 8 21 8q12 0 21 -7q11 -9 36 -45l62 -88l-10 -9z" />
    <glyph glyph-name="Adieresis" unicode="&#xc4;" horiz-adv-x="333" 
d="M287 54q2 -14 7.5 -20.5t12.5 -7.5q8 -3 16 0v-26h-129v26q9 -3 15 0q4 1 7.5 7.5t1.5 20.5q0 1 -4.5 36.5t-11.5 90.5h-105q-9 -55 -13.5 -90.5t-4.5 -36.5q-3 -14 1 -20.5t8 -7.5q5 -3 14 0v-26h-93v26q7 -3 15 0q6 1 12.5 7.5t9.5 20.5q0 1 4 29.5t11.5 75.5t17 106
t19.5 122q23 145 52 328h45q26 -183 46 -327q8 -63 16 -122t15 -106t11 -76t4 -30zM199 205q-6 38 -11 82t-11 87.5t-12.5 86t-11.5 79.5q-7 -37 -13.5 -79.5t-13 -86t-13.5 -87.5t-12 -82h98zM221 745q-12 0 -20.5 8.5t-8.5 20.5q0 13 8.5 21.5t20.5 8.5q13 0 21.5 -8.5
t8.5 -21.5q0 -12 -8.5 -20.5t-21.5 -8.5zM124 745q-13 0 -21.5 8.5t-8.5 20.5q0 13 8.5 21.5t21.5 8.5t21.5 -8.5t8.5 -21.5q0 -12 -8.5 -20.5t-21.5 -8.5z" />
    <glyph glyph-name="Aring" unicode="&#xc5;" horiz-adv-x="334" 
d="M288 54q2 -14 7.5 -20.5t12.5 -7.5q8 -3 16 0v-26h-129v26q9 -3 15 0q4 1 7.5 7.5t1.5 20.5q0 1 -4.5 36.5t-12.5 90.5h-104q-9 -55 -13.5 -90.5t-4.5 -36.5q-3 -14 0.5 -20.5t7.5 -7.5q6 -3 14 0v-26h-92v26q7 -3 15 0q6 1 12.5 7.5t9.5 20.5q0 1 4 29.5t11 75.5
t16.5 106t20.5 122q23 145 52 328h45q26 -183 46 -327q8 -63 16 -122t15 -106t11 -76t4 -30zM200 205q-6 38 -11.5 82t-11 87.5t-12 86t-11.5 79.5q-7 -37 -13.5 -79.5t-13.5 -86t-13.5 -87.5t-11.5 -82h98zM212 851q18 -18 18 -43q0 -24 -18 -42t-43 -18q-24 0 -43 18
q-18 17 -18 41q0 27 18 44q18 18 44 18q25 0 42 -18zM195 783q11 10 11 25t-10 27q-11 10 -26 10t-26 -11q-12 -11 -12 -27q0 -15 11 -25q12 -11 27 -11q14 0 25 12z" />
    <glyph glyph-name="Agrave" unicode="&#xc0;" horiz-adv-x="330" 
d="M286 54q2 -14 7.5 -20.5t12.5 -7.5q8 -3 16 0v-26h-129v26q9 -3 15 0q4 1 7.5 7.5t1.5 20.5q0 1 -4.5 36.5t-11.5 90.5h-105q-9 -55 -13.5 -90.5t-4.5 -36.5q-3 -14 1 -20.5t8 -7.5q5 -3 14 0v-26h-93v26q7 -3 15 0q6 1 12.5 7.5t9.5 20.5q0 1 4 29.5t11.5 75.5t17 106
t19.5 122q23 145 52 328h45q26 -183 46 -327q8 -63 16 -122t15 -106t11 -76t4 -30zM198 205q-6 38 -11 82t-11 87.5t-12.5 86t-11.5 79.5q-7 -37 -13.5 -79.5t-13 -86t-13.5 -87.5t-12 -82h98zM225 754l-6 -6l-82 59q-32 24 -32 38q0 10 7 17q9 7 17 7q16 0 29 -19z" />
    <glyph glyph-name="Atilde" unicode="&#xc3;" horiz-adv-x="331" 
d="M286 54q2 -14 7.5 -20.5t12.5 -7.5q8 -3 16 0v-26h-129v26q9 -3 15 0q4 1 7.5 7.5t1.5 20.5q0 1 -4.5 36.5t-11.5 90.5h-105q-9 -55 -13.5 -90.5t-4.5 -36.5q-3 -14 1 -20.5t8 -7.5q5 -3 14 0v-26h-93v26q7 -3 15 0q6 1 12.5 7.5t9.5 20.5q0 1 4 29.5t11.5 75.5t17 106
t19.5 122q23 145 52 328h45q26 -183 46 -327q8 -63 16 -122t15 -106t11 -76t4 -30zM198 205q-6 38 -11 82t-11 87.5t-12.5 86t-11.5 79.5q-7 -37 -13.5 -79.5t-13 -86t-13.5 -87.5t-12 -82h98zM70 794q0 26 11.5 44t40.5 18q15 0 30.5 -7.5t30.5 -15t28 -12.5t22 0
q6 2 8.5 6.5t3.5 9.5v9h13q0 -25 -10.5 -43t-39.5 -18q-15 0 -30.5 7.5t-30.5 15t-28 12.5t-22 1q-7 -4 -9 -8.5t-3 -8.5t-1 -10h-14z" />
    <glyph glyph-name="Aacute" unicode="&#xc1;" horiz-adv-x="330" 
d="M286 54q2 -14 7.5 -20.5t12.5 -7.5q8 -3 16 0v-26h-129v26q9 -3 15 0q4 1 7.5 7.5t1.5 20.5q0 1 -4.5 36.5t-11.5 90.5h-105q-9 -55 -13.5 -90.5t-4.5 -36.5q-3 -14 1 -20.5t8 -7.5q5 -3 14 0v-26h-93v26q7 -3 15 0q6 1 12.5 7.5t9.5 20.5q0 1 4 29.5t11.5 75.5t17 106
t19.5 122q23 145 52 328h45q26 -183 46 -327q8 -63 16 -122t15 -106t11 -76t4 -30zM198 205q-6 38 -11 82t-11 87.5t-12.5 86t-11.5 79.5q-7 -37 -13.5 -79.5t-13 -86t-13.5 -87.5t-12 -82h98zM171 850q13 19 30 19q8 0 17 -7q7 -9 7 -17q0 -14 -33 -38l-81 -59l-6 6z" />
    <glyph glyph-name="Acircumflex" unicode="&#xc2;" horiz-adv-x="331" 
d="M286 54q2 -14 8 -20.5t12 -7.5q8 -3 16 0v-26h-129v26q9 -3 15 0q4 1 7.5 7.5t1.5 20.5q0 1 -4.5 36.5t-11.5 90.5h-105q-8 -55 -13 -90.5t-5 -36.5q-3 -14 1 -20.5t8 -7.5q5 -3 14 0v-26h-93v26q7 -3 15 0q7 1 13 7.5t9 20.5q0 1 4 29.5t11.5 75.5t17 106t19.5 122
q23 145 52 328h45q27 -183 46 -327q8 -63 16 -122t15 -106t11 -76t4 -30zM198 205q-6 38 -11 82t-11 87.5t-12.5 86t-11.5 79.5q-7 -37 -13.5 -79.5t-13 -86t-13.5 -87.5t-12 -82h98zM236 758h-14q-4 7 -8 12q-4 6 -8.5 13t-10.5 15q-5 7 -11.5 9.5t-10.5 2.5q-5 0 -11 -2.5
t-12 -9.5q-6 -8 -10.5 -15t-8.5 -13q-4 -5 -8 -12h-14l58 100h6h5z" />
    <glyph glyph-name="aacute" unicode="&#xe1;" 
d="M367 43q0 -8 -4 -16.5t-11.5 -16t-18.5 -13.5t-27 -6q-23 0 -42 11t-27 29q-5 10 -8 23q-14 -27 -40 -45t-59 -18q-39 0 -70 29q-17 15 -28 39t-13 55q-1 3 -1 12v1q1 17 7 35.5t16.5 37t24 35t30.5 28.5q4 2 7 4.5t8 5.5q1 1 2 1.5l3 1.5q18 11 31.5 20t24.5 17
q6 4 12.5 9t12.5 10q9 6 17.5 14t12.5 19q5 10 5 24t-2 25q-5 22 -21 38t-37 21q-8 3 -16 3q-28 0 -48 -10q-14 -6 -19.5 -13.5t-6.5 -14t2.5 -10.5t7.5 -6q2 -1 2.5 -1t2.5 -1q14 -5 22.5 -17.5t8.5 -27.5q0 -19 -14 -32.5t-33 -13.5q-20 0 -33.5 13.5t-13.5 32.5
q0 17 4 35.5t14 33.5q19 28 45.5 40.5t58.5 12.5q23 0 46.5 -9t42.5 -25.5t31 -39.5t12 -53v-294q0 -18 0.5 -23.5t0.5 -7.5v0q0 -13 8 -21t21 -8q11 0 19 7.5t9 19.5h21zM211 68q7 14 9 30t2 30v185q-5 -4 -9 -7.5t-9 -8.5q-29 -21 -50 -38.5t-34.5 -36t-21.5 -39.5
t-10 -48v-15q1 -38 20.5 -59.5t55.5 -21.5q15 0 29 8q13 9 18 21zM182 652q14 19 30 19q8 0 17 -8q7 -8 7 -16q0 -14 -32 -39l-81 -59l-7 7z" />
    <glyph glyph-name="agrave" unicode="&#xe0;" 
d="M367 43q0 -8 -4 -16.5t-11.5 -16t-18.5 -13.5t-27 -6q-23 0 -42 11t-27 29q-5 10 -8 23q-14 -27 -40 -45t-59 -18q-39 0 -70 29q-17 15 -28 39t-13 55q-1 3 -1 12v1q1 17 7 35.5t16.5 37t24 35t30.5 28.5q4 2 7 4.5t8 5.5q1 1 2 1.5l3 1.5q18 11 31.5 20t24.5 17
q6 4 12.5 9t12.5 10q9 6 17.5 14t12.5 19q5 10 5 24t-2 25q-5 22 -21 38t-37 21q-8 3 -16 3q-28 0 -48 -10q-14 -6 -19.5 -13.5t-6.5 -14t2.5 -10.5t7.5 -6q2 -1 2.5 -1t2.5 -1q14 -5 22.5 -17.5t8.5 -27.5q0 -19 -14 -32.5t-33 -13.5q-20 0 -33.5 13.5t-13.5 32.5
q0 17 4 35.5t14 33.5q19 28 45.5 40.5t58.5 12.5q23 0 46.5 -9t42.5 -25.5t31 -39.5t12 -53v-294q0 -18 0.5 -23.5t0.5 -7.5v0q0 -13 8 -21t21 -8q11 0 19 7.5t9 19.5h21zM211 68q7 14 9 30t2 30v185q-5 -4 -9 -7.5t-9 -8.5q-29 -21 -50 -38.5t-34.5 -36t-21.5 -39.5
t-10 -48v-15q1 -38 20.5 -59.5t55.5 -21.5q15 0 29 8q13 9 18 21zM236 556l-6 -7l-81 59q-33 25 -33 39q0 8 8 16t17 8q16 0 29 -19z" />
    <glyph glyph-name="acircumflex" unicode="&#xe2;" horiz-adv-x="377" 
d="M368 43q0 -8 -4 -16.5t-11.5 -16t-18.5 -13.5t-27 -6q-23 0 -42 11t-27 29q-5 10 -8 23q-14 -27 -40 -45t-59 -18q-39 0 -70 29q-17 15 -28 39t-13 55q-1 3 -1 12v1q1 17 7 35.5t16.5 37t24 35t30.5 28.5q4 2 7 4.5t8 5.5q1 1 2 1.5l3 1.5q18 11 31.5 20t24.5 17
q6 4 12.5 9t12.5 10q9 6 17.5 14t12.5 19q5 10 5 24t-2 25q-5 22 -21 38t-37 21q-8 3 -16 3q-28 0 -48 -10q-14 -6 -19.5 -13.5t-6.5 -14t2.5 -10.5t7.5 -6q2 -1 2.5 -1t2.5 -1q14 -5 22.5 -17.5t8.5 -27.5q0 -19 -14 -32.5t-33 -13.5q-20 0 -33.5 13.5t-13.5 32.5
q0 17 4 35.5t14 33.5q19 28 45.5 40.5t58.5 12.5q23 0 46.5 -9t42.5 -25.5t31 -39.5t12 -53v-294q0 -18 0.5 -23.5t0.5 -7.5v0q0 -13 8 -21t21 -8q11 0 19 7.5t9 19.5h21zM212 68q7 14 9 30t2 30v185q-5 -4 -9 -7.5t-9 -8.5q-29 -21 -50 -38.5t-34.5 -36t-21.5 -39.5
t-10 -48v-15q1 -38 20.5 -59.5t55.5 -21.5q15 0 29 8q13 9 18 21zM234 556h-13q-5 6 -8 12q-4 6 -9 13t-10 15q-6 7 -12 9.5t-11 2.5q-4 0 -10 -2.5t-12 -9.5q-6 -8 -11 -15t-8 -13l-8 -12h-14l58 100h5h6z" />
    <glyph glyph-name="adieresis" unicode="&#xe4;" 
d="M367 43q0 -8 -4 -16.5t-11.5 -16t-18.5 -13.5t-27 -6q-23 0 -42 11t-27 29q-5 10 -8 23q-14 -27 -40 -45t-59 -18q-39 0 -70 29q-17 15 -28 39t-13 55q-1 3 -1 12v1q1 17 7 35.5t16.5 37t24 35t30.5 28.5q4 2 7 4.5t8 5.5q1 1 2 1.5l3 1.5q18 11 31.5 20t24.5 17
q6 4 12.5 9t12.5 10q9 6 17.5 14t12.5 19q5 10 5 24t-2 25q-5 22 -21 38t-37 21q-8 3 -16 3q-28 0 -48 -10q-14 -6 -19.5 -13.5t-6.5 -14t2.5 -10.5t7.5 -6q2 -1 2.5 -1t2.5 -1q14 -5 22.5 -17.5t8.5 -27.5q0 -19 -14 -32.5t-33 -13.5q-20 0 -33.5 13.5t-13.5 32.5
q0 17 4 35.5t14 33.5q19 28 45.5 40.5t58.5 12.5q23 0 46.5 -9t42.5 -25.5t31 -39.5t12 -53v-294q0 -18 0.5 -23.5t0.5 -7.5v0q0 -13 8 -21t21 -8q11 0 19 7.5t9 19.5h21zM211 68q7 14 9 30t2 30v185q-5 -4 -9 -7.5t-9 -8.5q-29 -21 -50 -38.5t-34.5 -36t-21.5 -39.5
t-10 -48v-15q1 -38 20.5 -59.5t55.5 -21.5q15 0 29 8q13 9 18 21zM217 564q-12 0 -21 8.5t-9 21.5q0 12 9 20.5t21 8.5q13 0 21.5 -8.5t8.5 -20.5q0 -13 -8.5 -21.5t-21.5 -8.5zM120 564q-13 0 -21.5 8.5t-8.5 21.5q0 12 8.5 20.5t21.5 8.5q12 0 20.5 -8.5t8.5 -20.5
q0 -13 -8.5 -21.5t-20.5 -8.5z" />
    <glyph glyph-name="atilde" unicode="&#xe3;" horiz-adv-x="378" 
d="M368 43q0 -8 -4 -16.5t-11.5 -16t-19 -13.5t-26.5 -6q-23 0 -42 11t-27 29q-6 10 -8 23q-14 -27 -40 -45t-59 -18q-39 0 -70 29q-17 15 -28 39t-13 55q-1 3 -1 12v1q1 17 7 35.5t16 37t24 35t31 28.5q4 2 7 4.5t7 5.5l3 1.5l3 1.5q18 11 31.5 20t24.5 17q6 4 12.5 9
t12.5 10q9 6 17.5 14t12.5 19q5 10 5 24t-2 25q-5 22 -21 38t-37 21q-8 3 -16 3q-28 0 -48 -10q-14 -6 -19.5 -13.5t-6.5 -14t2.5 -10.5t7.5 -6q2 -1 2.5 -1t2.5 -1q13 -5 22 -17.5t9 -27.5q0 -19 -14 -32.5t-33 -13.5q-20 0 -33.5 13.5t-13.5 32.5q0 17 4 35.5t14 33.5
q19 28 45 40.5t59 12.5q23 0 46.5 -9t42.5 -25.5t31 -39.5t12 -53v-294q0 -18 0.5 -23.5t0.5 -7.5v0q0 -13 8 -21t21 -8q11 0 19 7.5t9 19.5h21zM212 68q7 14 9 30t2 30v185q-5 -4 -9 -7.5t-9 -8.5q-29 -21 -50 -38.5t-35 -36t-21.5 -39.5t-9.5 -48v-15q1 -38 20.5 -59.5
t55.5 -21.5q15 0 29 8q12 9 18 21zM83 562q0 25 11.5 43t39.5 18q15 0 30.5 -7t30.5 -14.5t28 -12.5t22 -1q5 3 8 7.5t4 8.5q1 5 1 11h12q0 -26 -10.5 -44t-39.5 -18q-14 0 -30 7.5t-31 15t-28 12.5t-22 0q-6 -3 -8.5 -7t-3.5 -9q-1 -4 -1 -10h-13z" />
    <glyph glyph-name="aring" unicode="&#xe5;" horiz-adv-x="380" 
d="M370 43q0 -8 -4 -16.5t-11.5 -16t-19 -13.5t-26.5 -6q-23 0 -42 11t-27 29q-6 10 -8 23q-14 -27 -40 -45t-59 -18q-40 0 -70 29q-17 15 -28 39t-13 55q-1 3 -1 12v1q1 17 7 35.5t16 37t24 35t31 28.5q4 2 7 4.5t7 5.5l3 1.5l3 1.5q18 11 31.5 20t24.5 17q6 4 12.5 9
t12.5 10q9 6 17.5 14t12.5 19q5 10 5 24t-2 25q-5 22 -21 38t-37 21q-8 3 -16 3q-28 0 -48 -10q-14 -6 -19.5 -13.5t-6.5 -14t2.5 -10.5t7.5 -6q2 -1 2.5 -1t2.5 -1q13 -5 22 -17.5t9 -27.5q0 -19 -14 -32.5t-33 -13.5q-20 0 -34 13.5t-14 32.5q0 17 4.5 35.5t14.5 33.5
q19 28 45 40.5t59 12.5q23 0 46.5 -9t42.5 -25.5t31 -39.5t12 -53v-294q0 -18 0.5 -23.5t0.5 -7.5v0q0 -13 8 -21t21 -8q11 0 19 7.5t9 19.5h21zM214 68q7 14 9 30t2 30v185q-5 -4 -9 -7.5t-9 -8.5q-29 -21 -50 -38.5t-35 -36t-21.5 -39.5t-9.5 -48v-15q1 -38 20.5 -59.5
t55.5 -21.5q15 0 29 8q12 9 18 21zM216 650q18 -18 18 -43t-18 -43t-43 -18q-24 0 -42 18q-19 17 -19 42q0 27 19 44q17 18 43 18q25 0 42 -18zM199 581q11 11 11 26t-10 27q-11 10 -26 10t-26 -11q-12 -11 -12 -27q0 -15 11 -26q12 -10 27 -10q14 0 25 11z" />
    <glyph glyph-name="eacute" unicode="&#xe9;" horiz-adv-x="306" 
d="M151 496q24 0 48 -8t43 -25t30.5 -43t11.5 -62v-101v-3v-23h-198v-103q0 -62 21 -88.5t53 -25.5q18 1 36.5 6.5t33 18.5t23.5 37t9 63h22v-14q0 -27 -6.5 -51.5t-21 -42.5t-38 -28.5t-58.5 -11.5q-23 0 -47.5 9t-45 27t-34 42.5t-13.5 55.5v23.5t-0.5 38.5t-0.5 47.5
t-0.5 49.5t-0.5 43.5v29.5q0 36 12.5 62.5t31.5 43t42.5 25t46.5 8.5zM216 257v79q0 38 -4.5 63.5t-13 41t-20.5 21.5t-28 6q-31 0 -47 -28t-16 -104v-79h129zM182 652q14 19 30 19q8 0 17 -8q7 -8 7 -16q0 -14 -32 -39l-81 -59l-7 7z" />
    <glyph glyph-name="egrave" unicode="&#xe8;" horiz-adv-x="306" 
d="M152 496q24 0 48 -8t43 -25t30.5 -43t11.5 -62v-101v-3v-23h-198v-103q0 -62 21 -88.5t52 -25.5q19 1 37.5 6.5t32.5 18.5t23.5 37t9.5 63h22v-14q0 -27 -6.5 -51.5t-21 -42.5t-38 -28.5t-58.5 -11.5q-23 0 -48 9t-45 27t-33.5 42.5t-13.5 55.5v23.5t-0.5 38.5t-0.5 47.5
t-0.5 49.5t-0.5 43.5v29.5q0 36 12.5 62.5t31.5 43t42.5 25t46.5 8.5zM217 257v79q0 38 -4.5 63.5t-13 41t-20.5 21.5t-28 6q-31 0 -47 -28t-16 -104v-79h129zM237 556l-6 -7l-82 59q-32 25 -32 39q0 8 7 16q9 8 18 8q16 0 29 -19z" />
    <glyph glyph-name="ecircumflex" unicode="&#xea;" horiz-adv-x="307" 
d="M153 496q24 0 48 -8t43 -25t30.5 -43t11.5 -62v-101v-3v-23h-198v-103q0 -62 21 -88.5t52 -25.5q19 1 37.5 6.5t32.5 18.5t23.5 37t9.5 63h22v-14q0 -27 -6.5 -51.5t-21 -42.5t-38 -28.5t-58.5 -11.5q-23 0 -48 9t-45 27t-33.5 42.5t-13.5 55.5v23.5t-0.5 38.5t-0.5 47.5
t-0.5 49.5t-0.5 43.5v29.5q0 36 12.5 62.5t31.5 43t42.5 25t46.5 8.5zM218 257v79q0 38 -4.5 63.5t-13 41t-20.5 21.5t-28 6q-31 0 -47 -28t-16 -104v-79h129zM235 556h-13q-5 6 -8 12q-4 6 -9 13t-10 15q-6 7 -12 9.5t-11 2.5q-4 0 -10 -2.5t-12 -9.5q-7 -8 -11.5 -15
t-7.5 -13l-8 -12h-14l58 100h5h6z" />
    <glyph glyph-name="edieresis" unicode="&#xeb;" horiz-adv-x="307" 
d="M154 496q24 0 48 -8t43 -25t30.5 -43t11.5 -62v-101v-3v-23h-198v-103q0 -62 21 -88.5t52 -25.5q19 1 37.5 6.5t32.5 18.5t23 37t9 63h23v-14q0 -27 -6.5 -51.5t-21 -42.5t-38.5 -28.5t-58 -11.5q-23 0 -48 9t-45 27t-33.5 42.5t-13.5 55.5v23.5t-0.5 38.5t-0.5 47.5
t-0.5 49.5t-0.5 43.5v29.5q0 36 12.5 62.5t31.5 43t42.5 25t46.5 8.5zM219 257v79q0 38 -4.5 63.5t-13 41t-20.5 21.5t-28 6q-31 0 -47.5 -28t-16.5 -104v-79h130zM215 564q-13 0 -21.5 8.5t-8.5 21.5q0 12 8.5 20.5t21.5 8.5q12 0 21 -8.5t9 -20.5q0 -13 -9 -21.5t-21 -8.5
zM117 564q-12 0 -20.5 8.5t-8.5 21.5q0 12 8.5 20.5t20.5 8.5q13 0 21.5 -8.5t8.5 -20.5q0 -13 -8.5 -21.5t-21.5 -8.5z" />
    <glyph glyph-name="iacute" unicode="&#xed;" horiz-adv-x="152" 
d="M112 54q0 -14 4.5 -20.5t8.5 -7.5q5 -3 13 0v-26h-121v26q8 -3 14 0q3 1 8 7.5t5 20.5v381q0 13 -5 19.5t-8 8.5q-6 2 -14 0v25h95v-434zM79 652q13 19 30 19q8 0 17 -8q7 -8 7 -16q0 -14 -32 -39l-82 -59l-5 7z" />
    <glyph glyph-name="igrave" unicode="&#xec;" horiz-adv-x="158" 
d="M120 54q0 -14 4 -20.5t8 -7.5q6 -3 13 0v-26h-120v26q7 -3 12 0q5 1 9.5 7.5t4.5 20.5v381q0 13 -4.5 19.5t-9.5 8.5t-12 0v25h95v-434zM133 556l-6 -7l-81 59q-32 25 -32 39q0 8 6 16q10 8 17 8q16 0 31 -19z" />
    <glyph glyph-name="icircumflex" unicode="&#xee;" horiz-adv-x="162" 
d="M122 54q0 -14 4 -20.5t9 -7.5q5 -3 12 0v-26h-119v26q6 -3 12 0q5 1 9 7.5t4 20.5v381q0 13 -4 19.5t-9 8.5q-6 2 -12 0v25h94v-434zM139 556h-14l-8 12t-8.5 13t-10.5 15q-6 7 -12 9.5t-11 2.5q-4 0 -10 -2.5t-13 -9.5q-5 -8 -10 -15t-9 -13q-2 -6 -7 -12h-13l57 100h5
h6z" />
    <glyph glyph-name="idieresis" unicode="&#xef;" horiz-adv-x="176" 
d="M130 54q0 -14 4 -20.5t9 -7.5q5 -3 12 0v-26h-120v26q8 -3 13 0q4 1 9 7.5t5 20.5v381q0 13 -5 19.5t-9 8.5q-5 2 -13 0v25h95v-434zM134 564q-13 0 -21.5 8.5t-8.5 21.5q0 12 8.5 20.5t21.5 8.5q12 0 20.5 -8.5t8.5 -20.5q0 -13 -8.5 -21.5t-20.5 -8.5zM36 564
q-12 0 -20.5 8.5t-8.5 21.5q0 12 8.5 20.5t20.5 8.5q13 0 21.5 -8.5t8.5 -20.5q0 -13 -8.5 -21.5t-21.5 -8.5z" />
    <glyph glyph-name="ntilde" unicode="&#xf1;" horiz-adv-x="364" 
d="M203 496q52 -2 84 -34.5t32 -105.5v-146v-156q0 -20 6.5 -24.5t13.5 -4.5h3q1 0 2 1v-26h-119v26l1 -1h5q4 0 10.5 4t8.5 20v284q0 14 -0.5 25t-0.5 20v1q-2 50 -12.5 71t-34.5 23h-4q-31 0 -53.5 -24t-28.5 -81v-314q0 -20 7 -24.5t12 -4.5h5q1 0 2 1v-26h-121v26
q1 -1 2 -1h5q7 0 13.5 4.5t6.5 24.5v382q0 19 -6.5 24t-13.5 5h-3h-2h-2v23h95v-39q4 6 7.5 11t7.5 9q17 15 38 22h1q0 1 1 1q8 2 15 3t14 1h3zM85 562q0 25 11 43t40 18q14 0 30 -7t31 -14.5t28 -12.5t22 -1q5 3 8 7.5t4 8.5q1 5 1 11h12q0 -26 -10.5 -44t-39.5 -18
q-15 0 -30.5 7.5t-30.5 15t-28 12.5t-22 0q-6 -3 -8.5 -7t-3.5 -9q-1 -4 -1 -10h-13z" />
    <glyph glyph-name="oacute" unicode="&#xf3;" horiz-adv-x="316" 
d="M157 496q24 0 48 -8t44 -25t32 -44t12 -64v-227q0 -29 -12.5 -54t-32 -43t-44 -29t-47.5 -11q-25 0 -49 9t-43.5 27t-32.5 43.5t-13 57.5v225q0 38 12.5 65t32.5 44.5t44 25.5t49 8zM223 333q0 38 -4.5 64.5t-13 42.5t-21 22.5t-28.5 6.5q-32 0 -49 -29.5t-17 -106.5
v-178q0 -77 17 -109t49 -32t49.5 32t17.5 109v178zM183 652q14 19 30 19q8 0 17 -8q7 -8 7 -16q0 -14 -32 -39l-81 -59l-7 7z" />
    <glyph glyph-name="ograve" unicode="&#xf2;" horiz-adv-x="316" 
d="M158 496q24 0 48 -8t43.5 -25t32 -44t12.5 -64v-227q0 -29 -12.5 -54t-32 -43t-44 -29t-47.5 -11q-25 0 -49 9t-43.5 27t-32.5 43.5t-13 57.5v225q0 38 12.5 65t32.5 44.5t44 25.5t49 8zM224 333q0 38 -4.5 64.5t-13.5 42.5t-21 22.5t-28 6.5q-32 0 -49 -29.5t-17 -106.5
v-178q0 -77 17 -109t49 -32q31 0 49 32t18 109v178zM238 556l-6 -7l-82 59q-32 25 -32 39q0 8 7 16q9 8 18 8q16 0 29 -19z" />
    <glyph glyph-name="ocircumflex" unicode="&#xf4;" horiz-adv-x="316" 
d="M159 496q24 0 48 -8t43.5 -25t32 -44t12.5 -64v-227q0 -29 -13 -54t-32 -43t-43.5 -29t-47.5 -11q-25 0 -49 9t-43.5 27t-32.5 43.5t-13 57.5v225q0 38 12.5 65t32.5 44.5t44 25.5t49 8zM225 333q0 38 -5 64.5t-13.5 42.5t-20.5 22.5t-28 6.5q-33 0 -49.5 -29.5
t-16.5 -106.5v-178q0 -77 16.5 -109t49.5 -32q31 0 49 32t18 109v178zM218 556h-13q-5 6 -8 12q-4 6 -9 13t-10 15q-6 7 -12 9.5t-11 2.5t-10.5 -2.5t-12.5 -9.5q-6 -8 -10.5 -15t-8.5 -13q-3 -6 -7 -12h-14l58 100h5h6z" />
    <glyph glyph-name="odieresis" unicode="&#xf6;" horiz-adv-x="318" 
d="M160 496q24 0 48 -8t43.5 -25t32 -44t12.5 -64v-227q0 -29 -13 -54t-32 -43t-43.5 -29t-47.5 -11q-25 0 -49 9t-43.5 27t-32.5 43.5t-13 57.5v225q0 38 12.5 65t32.5 44.5t44 25.5t49 8zM226 333q0 38 -5 64.5t-13.5 42.5t-20.5 22.5t-28 6.5q-33 0 -49.5 -29.5
t-16.5 -106.5v-178q0 -77 16.5 -109t49.5 -32q31 0 49 32t18 109v178zM208 564q-12 0 -20.5 8.5t-8.5 21.5q0 12 8.5 20.5t20.5 8.5q13 0 21.5 -8.5t8.5 -20.5q0 -13 -8.5 -21.5t-21.5 -8.5zM111 564q-13 0 -21.5 8.5t-8.5 21.5q0 12 8.5 20.5t21.5 8.5t21.5 -8.5t8.5 -20.5
q0 -13 -8.5 -21.5t-21.5 -8.5z" />
    <glyph glyph-name="otilde" unicode="&#xf5;" horiz-adv-x="321" 
d="M162 496q24 0 48 -8t43.5 -25t32 -44t12.5 -64v-227q0 -29 -13 -54t-32 -43t-43.5 -29t-47.5 -11q-25 0 -49 9t-43.5 27t-32.5 43.5t-13 57.5v225q0 38 12.5 65t32.5 44.5t44 25.5t49 8zM227 333q0 38 -4.5 64.5t-13 42.5t-20.5 22.5t-28 6.5q-33 0 -50 -29.5t-17 -106.5
v-178q0 -77 17 -109t50 -32q31 0 48.5 32t17.5 109v178zM67 562q0 25 11.5 43t39.5 18q14 0 30 -7t31 -14.5t28 -12.5t22 -1q5 3 8 7.5t4 8.5q1 5 1 11h12q0 -26 -10.5 -44t-39.5 -18q-15 0 -30.5 7.5t-30.5 15t-28 12.5t-22 0q-6 -3 -8.5 -7t-3.5 -9q-1 -4 -1 -10h-13z" />
    <glyph glyph-name="uacute" unicode="&#xfa;" horiz-adv-x="359" 
d="M339 461h-1q-1 0 -2 0.5t-3 0.5q-6 0 -12.5 -5.5t-6.5 -24.5v-17.5v-43t-0.5 -60.5t-0.5 -69.5t-0.5 -69.5t-0.5 -60.5v-43.5v-18q0 -19 6.5 -22.5t12.5 -3.5q4 0 5 1q1 0 2 1v-26h-95v37q-4 -6 -8 -10t-8 -9q-15 -14 -36 -22q-1 0 -1.5 -0.5t-1.5 -0.5h-1q-11 -4 -28 -4
h-3q-51 2 -83 34.5t-32 104.5v145q0 30 0.5 58t0.5 50t0.5 35t0.5 14q0 19 -6.5 24.5t-13.5 5.5q-2 0 -3 -0.5t-2 -0.5h-2v25h121v-25h-2q-1 0 -2 0.5t-3 0.5q-5 0 -11.5 -4.5t-7.5 -20.5v-53t-0.5 -67t-0.5 -70.5v-65v-49.5v-23v-1q2 -51 12.5 -72t35.5 -22h3q31 0 53.5 24
t28.5 81v102.5v101.5t0.5 77t0.5 32q0 19 -6.5 24.5t-12.5 5.5q-1 0 -2 -0.5t-2 -0.5h-2v25h120v-25zM196 652q14 19 30 19q8 0 17 -8q7 -8 7 -16q0 -14 -32 -39l-81 -59l-7 7z" />
    <glyph glyph-name="ugrave" unicode="&#xf9;" horiz-adv-x="358" 
d="M340 461h-1l-1 0.5t-3 0.5q-6 0 -12.5 -5.5t-6.5 -24.5v-17.5v-43t-0.5 -60.5t-0.5 -69.5t-0.5 -69.5t-0.5 -60.5v-43.5v-18q0 -19 6.5 -22.5t12.5 -3.5q4 0 5 1q1 0 1 1v-26h-95v37q-3 -6 -7 -10t-8 -9q-15 -14 -36 -22q-1 0 -1.5 -0.5t-1.5 -0.5h-1q-11 -4 -28 -4h-3
q-52 2 -83.5 34.5t-31.5 104.5v145q0 30 0.5 58t0.5 50t0.5 35t0.5 14q0 19 -6.5 24.5t-13.5 5.5q-2 0 -3 -0.5t-2 -0.5h-2v25h121v-25h-2q-1 0 -2 0.5t-3 0.5q-5 0 -11.5 -4.5t-7.5 -20.5v-53t-0.5 -67t-0.5 -70.5v-65v-49.5v-23v-1q2 -51 12.5 -72t35.5 -22h3
q31 0 53.5 24t27.5 81q0 48 0.5 102.5t0.5 101.5t0.5 77t0.5 32q0 19 -6.5 24.5t-12.5 5.5q-2 0 -2.5 -0.5t-1.5 -0.5h-2v25h119v-25zM234 556l-6 -7l-81 59q-33 25 -33 39q0 8 8 16t17 8q16 0 29 -19z" />
    <glyph glyph-name="ucircumflex" unicode="&#xfb;" horiz-adv-x="359" 
d="M340 461h-1q-1 0 -2 0.5t-3 0.5q-6 0 -12.5 -5.5t-6.5 -24.5v-17.5v-43t-0.5 -60.5t-0.5 -69.5t-0.5 -69.5t-0.5 -60.5v-43.5v-18q0 -19 6.5 -22.5t12.5 -3.5q4 0 5 1q1 0 2 1v-26h-95v37q-4 -6 -8 -10t-8 -9q-15 -14 -36 -22q-1 0 -1.5 -0.5t-1.5 -0.5h-1q-11 -4 -28 -4
h-3q-51 2 -83 34.5t-32 104.5v145q0 30 0.5 58t0.5 50t0.5 35t0.5 14q0 19 -6.5 24.5t-13.5 5.5q-2 0 -3 -0.5t-2 -0.5h-2v25h121v-25h-2q-1 0 -2 0.5t-3 0.5q-5 0 -11.5 -4.5t-7.5 -20.5v-53t-0.5 -67t-0.5 -70.5v-65v-49.5v-23v-1q2 -51 12.5 -72t35.5 -22h3q31 0 53.5 24
t28.5 81v102.5v101.5t0.5 77t0.5 32q0 19 -6.5 24.5t-12.5 5.5q-1 0 -2 -0.5t-2 -0.5h-2v25h120v-25zM247 556h-14l-8 12q-3 6 -8 13t-11 15q-5 7 -11.5 9.5t-10.5 2.5q-5 0 -10.5 -2.5t-12.5 -9.5q-6 -8 -10.5 -15t-8.5 -13q-3 -6 -8 -12h-13l57 100h6h5z" />
    <glyph glyph-name="udieresis" unicode="&#xfc;" horiz-adv-x="359" 
d="M340 461h-1l-1 0.5t-3 0.5q-6 0 -12.5 -5.5t-6.5 -24.5v-17.5v-43t-0.5 -60.5t-0.5 -69.5t-0.5 -69.5t-0.5 -60.5v-43.5v-18q0 -19 6.5 -22.5t12.5 -3.5q4 0 5 1q1 0 1 1v-26h-95v37q-3 -6 -7 -10t-8 -9q-15 -14 -36 -22q-1 0 -1.5 -0.5t-1.5 -0.5h-1q-11 -4 -28 -4h-3
q-52 2 -83.5 34.5t-31.5 104.5v145q0 30 0.5 58t0.5 50t0.5 35t0.5 14q0 19 -6.5 24.5t-13.5 5.5q-2 0 -3 -0.5t-2 -0.5h-2v25h121v-25h-2q-1 0 -2 0.5t-3 0.5q-5 0 -11.5 -4.5t-7.5 -20.5v-53t-0.5 -67t-0.5 -70.5v-65v-49.5v-23v-1q2 -51 12.5 -72t35.5 -22h3
q31 0 53.5 24t27.5 81q0 48 0.5 102.5t0.5 101.5t0.5 77t0.5 32q0 19 -6.5 24.5t-12.5 5.5q-2 0 -2.5 -0.5t-1.5 -0.5h-2v25h119v-25zM230 564q-13 0 -21.5 8.5t-8.5 21.5q0 12 8.5 20.5t21.5 8.5t21.5 -8.5t8.5 -20.5q0 -13 -8.5 -21.5t-21.5 -8.5zM132 564
q-12 0 -20.5 8.5t-8.5 21.5q0 12 8.5 20.5t20.5 8.5q13 0 21.5 -8.5t8.5 -20.5q0 -13 -8.5 -21.5t-21.5 -8.5z" />
    <glyph glyph-name="ydieresis" unicode="&#xff;" horiz-adv-x="412" 
d="M407 488v-26q-8 3 -15 -1q-6 -3 -13.5 -13t-15.5 -34q-1 -2 -7 -24t-15.5 -58t-22.5 -81.5t-26.5 -93.5t-26.5 -94.5t-24 -85t-19 -64.5t-12 -32q-12 -28 -35 -48.5t-54 -22.5q-8 0 -16 1t-17 4q-15 4 -27.5 14.5t-21.5 26t-12.5 34t2.5 39.5q0 1 0.5 1t0.5 1v3
q4 18 20 27t34 4t27 -20.5t4 -33.5q-5 -17 -19 -26t-31 -6q1 -33 28 -41q15 -5 26.5 5.5t21.5 28.5q2 3 12 40t25 88l-20 72.5t-25 89.5t-25.5 92t-23 83t-17 62t-7.5 27q-8 20 -16 29.5t-14 10.5q-10 3 -18 -1v23h100v-23q-9 1 -13 -2q-5 -3 -6 -12t7 -28l5 -19.5t13 -50.5
t18 -70t21 -79t21 -77.5t17 -64.5q16 56 33 117.5t30.5 112.5l22.5 85t10 37q6 24 3 34t-9 13q-6 4 -16 1v26h138zM259 564q-13 0 -22 8.5t-9 21.5q0 12 9 20.5t22 8.5q12 0 20.5 -8.5t8.5 -20.5q0 -13 -8.5 -21.5t-20.5 -8.5zM161 564q-13 0 -21.5 8.5t-8.5 21.5
q0 12 8.5 20.5t21.5 8.5t21.5 -8.5t8.5 -20.5q0 -13 -8.5 -21.5t-21.5 -8.5z" />
    <glyph glyph-name="Eacute" unicode="&#xc9;" horiz-adv-x="281" 
d="M268 105v-105h-251v26q8 -3 14 0q4 1 8 7.5t4 20.5v607q0 15 -4 21.5t-8 8.5q-6 2 -14 0v24h251v-105h-26q-1 23 -7 41q-4 15 -15.5 28.5t-32.5 13.5h-75v-324h42q13 0 19.5 7t10.5 16q3 11 3 25h24v-123h-24q0 14 -3 24q-4 10 -10.5 17.5t-19.5 7.5h-42v-319h75
q21 0 32.5 12t15.5 28q6 18 7 41h26zM171 850q14 19 30 19q8 0 17 -7q7 -9 7 -17q0 -14 -32 -38l-82 -59l-5 6z" />
    <glyph glyph-name="Edieresis" unicode="&#xcb;" horiz-adv-x="290" 
d="M272 105v-105h-250v26q8 -3 13 0q4 1 8.5 7.5t4.5 20.5v607q0 15 -4.5 21.5t-8.5 8.5q-5 2 -13 0v24h250v-105h-26q-1 23 -6 41q-5 15 -16 28.5t-32 13.5h-75v-324h42q12 0 19 7t10 16q4 11 4 25h23v-123h-23q0 14 -4 24q-3 10 -10 17.5t-19 7.5h-42v-319h75q21 0 32 12
t16 28q5 18 6 41h26zM205 745q-13 0 -21.5 8.5t-8.5 20.5q0 13 8.5 21.5t21.5 8.5q12 0 20.5 -8.5t8.5 -21.5q0 -12 -8.5 -20.5t-20.5 -8.5zM107 745q-13 0 -21.5 8.5t-8.5 20.5q0 13 8.5 21.5t21.5 8.5t21.5 -8.5t8.5 -21.5q0 -12 -8.5 -20.5t-21.5 -8.5z" />
    <glyph glyph-name="Egrave" unicode="&#xc8;" horiz-adv-x="280" 
d="M268 105v-105h-250v26q8 -3 14 0q3 1 7.5 7.5t4.5 20.5v607q0 15 -4.5 21.5t-7.5 8.5q-6 2 -14 0v24h250v-105h-25q-1 23 -7 41q-4 15 -15.5 28.5t-32.5 13.5h-75v-324h42q13 0 19.5 7t10.5 16q3 11 3 25h24v-123h-24q0 14 -3 24q-4 10 -10.5 17.5t-19.5 7.5h-42v-319h75
q21 0 32.5 12t15.5 28q6 18 7 41h25zM209 754l-6 -6l-82 59q-32 24 -32 38q0 10 7 17q10 7 17 7q17 0 29 -19z" />
    <glyph glyph-name="Ecircumflex" unicode="&#xca;" horiz-adv-x="280" 
d="M269 105v-105h-250v26q8 -3 14 0q3 1 7.5 7.5t4.5 20.5v607q0 15 -4.5 21.5t-7.5 8.5q-6 2 -14 0v24h250v-105h-25q-1 23 -7 41q-4 15 -15.5 28.5t-32.5 13.5h-75v-324h42q13 0 19.5 7t10.5 16q3 11 3 25h24v-123h-24q0 14 -3 24q-4 10 -10.5 17.5t-19.5 7.5h-42v-319h75
q21 0 32.5 12t15.5 28q6 18 7 41h25zM212 758h-14q-4 7 -8 12q-3 6 -8 13t-11 15q-5 7 -11.5 9.5t-10.5 2.5q-5 0 -11 -2.5t-12 -9.5q-6 -8 -10.5 -15t-8.5 -13q-3 -5 -8 -12h-13l57 100h6h5z" />
    <glyph glyph-name="Iacute" unicode="&#xcd;" horiz-adv-x="151" 
d="M109 54q0 -14 4 -20.5t9 -7.5q5 -3 12 0v-26h-120v26q7 -3 13 0q5 1 8.5 7.5t3.5 20.5v606q0 15 -3.5 21.5t-8.5 8.5q-6 3 -13 0v24h120v-24q-7 3 -12 0q-5 -2 -9 -8.5t-4 -21.5v-606zM86 850q13 19 29 19q8 0 17 -7q8 -9 8 -17q0 -14 -33 -38l-81 -59l-7 6z" />
    <glyph glyph-name="Icircumflex" unicode="&#xce;" horiz-adv-x="152" 
d="M110 54q0 -14 4.5 -20.5t8.5 -7.5q5 -3 13 0v-26h-121v26q8 -3 14 0q4 1 8 7.5t4 20.5v606q0 15 -4 21.5t-8 8.5q-6 3 -14 0v24h121v-24q-8 3 -13 0q-4 -2 -8.5 -8.5t-4.5 -21.5v-606zM140 758h-14q-4 7 -8 12q-4 6 -9 13t-10 15q-6 7 -12 9.5t-11 2.5t-10.5 -2.5
t-12.5 -9.5q-5 -8 -10 -15t-9 -13q-2 -5 -7 -12h-13l57 100h5h6z" />
    <glyph glyph-name="Idieresis" unicode="&#xcf;" horiz-adv-x="179" 
d="M122 54q0 -14 4 -20.5t9 -7.5q5 -3 12 0v-26h-119v26q6 -3 12 0q5 1 8.5 7.5t3.5 20.5v606q0 15 -3.5 21.5t-8.5 8.5q-6 3 -12 0v24h119v-24q-7 3 -12 0q-5 -2 -9 -8.5t-4 -21.5v-606zM139 745q-12 0 -21 8.5t-9 20.5q0 13 9 21.5t21 8.5q13 0 21.5 -8.5t8.5 -21.5
q0 -12 -8.5 -20.5t-21.5 -8.5zM42 745q-12 0 -20.5 8.5t-8.5 20.5q0 13 8.5 21.5t20.5 8.5t20.5 -8.5t8.5 -21.5q0 -12 -8.5 -20.5t-20.5 -8.5z" />
    <glyph glyph-name="Igrave" unicode="&#xcc;" horiz-adv-x="148" 
d="M109 54q0 -14 4.5 -20.5t8.5 -7.5q6 -3 13 0v-26h-121v26q8 -3 14 0q4 1 8 7.5t4 20.5v606q0 15 -4 21.5t-8 8.5q-6 3 -14 0v24h121v-24q-7 3 -13 0q-4 -2 -8.5 -8.5t-4.5 -21.5v-606zM133 754l-6 -6l-82 59q-31 24 -31 38q0 10 6 17q10 7 17 7q16 0 30 -19z" />
    <glyph glyph-name="Oacute" unicode="&#xd3;" horiz-adv-x="319" 
d="M225 564q0 39 -1 65t-7 42.5t-19.5 23.5t-38.5 7t-38 -7t-20 -23.5t-7.5 -42.5t-0.5 -65v-409q0 -38 1 -64t7.5 -42t20 -22t37.5 -6t37.5 6t19.5 22t7.5 42t1.5 64v409zM159 -7q-24 0 -47.5 8t-43 26t-32 44.5t-12.5 63.5v456q0 31 12.5 57t32 43t43 26t47.5 9
q23 0 47.5 -10.5t44 -29t31.5 -43t12 -52.5v-458q0 -37 -12 -63t-31.5 -43.5t-43.5 -25.5t-48 -8zM179 850q13 19 29 19q8 0 18 -7q7 -9 7 -17q0 -14 -33 -38l-81 -59l-6 6z" />
    <glyph glyph-name="Ocircumflex" unicode="&#xd4;" horiz-adv-x="319" 
d="M226 564q0 39 -1 65t-7 42.5t-19.5 23.5t-38.5 7t-38.5 -7t-20 -23.5t-7 -42.5t-0.5 -65v-409q0 -38 1 -64t7.5 -42t20 -22t37.5 -6t37.5 6t19.5 22t7.5 42t1.5 64v409zM160 -7q-24 0 -47.5 8t-43 26t-32 44.5t-12.5 63.5v456q0 31 12.5 57t32 43t43 26t47.5 9
q23 0 47.5 -10.5t43.5 -29t31.5 -43t12.5 -52.5v-458q0 -37 -12.5 -63t-31.5 -43.5t-43 -25.5t-48 -8zM220 758h-13q-5 7 -9 12q-3 6 -8 13t-10 15q-6 7 -12 9.5t-11 2.5t-10.5 -2.5t-12.5 -9.5q-6 -8 -10.5 -15t-8.5 -13q-3 -5 -7 -12h-14l57 100h6h5z" />
    <glyph glyph-name="Ograve" unicode="&#xd2;" horiz-adv-x="318" 
d="M225 564q0 39 -1 65t-7 42.5t-19.5 23.5t-38.5 7t-38.5 -7t-20 -23.5t-7 -42.5t-0.5 -65v-409q0 -38 1 -64t7.5 -42t20 -22t37.5 -6t37.5 6t19.5 22t7.5 42t1.5 64v409zM159 -7q-24 0 -47.5 8t-43 26t-32 44.5t-12.5 63.5v456q0 31 12.5 57t32 43t43 26t47.5 9
q23 0 47.5 -10.5t43.5 -29t31.5 -43t12.5 -52.5v-458q0 -37 -12.5 -63t-31.5 -43.5t-43 -25.5t-48 -8zM223 754l-7 -6l-82 59q-31 24 -31 38q0 10 7 17q9 7 17 7q16 0 29 -19z" />
    <glyph glyph-name="Odieresis" unicode="&#xd6;" horiz-adv-x="327" 
d="M229 564q0 39 -0.5 65t-6.5 42.5t-19.5 23.5t-39.5 7q-24 0 -37.5 -7t-20 -23.5t-7.5 -42.5t-1 -65v-409q0 -38 1.5 -64t8 -42t20 -22t36.5 -6q25 0 38.5 6t19.5 22t7 42t1 64v409zM163 -7q-23 0 -47 8t-43 26t-31.5 44.5t-12.5 63.5v456q0 31 12.5 57t31.5 43t43 26
t47 9q24 0 48 -10.5t43.5 -29t32 -43t12.5 -52.5v-458q0 -37 -12.5 -63t-32 -43.5t-43 -25.5t-48.5 -8zM215 745q-13 0 -21.5 8.5t-8.5 20.5q0 13 8.5 21.5t21.5 8.5t21.5 -8.5t8.5 -21.5q0 -12 -8.5 -20.5t-21.5 -8.5zM117 745q-12 0 -20.5 8.5t-8.5 20.5q0 13 8.5 21.5
t20.5 8.5q13 0 21.5 -8.5t8.5 -21.5q0 -12 -8.5 -20.5t-21.5 -8.5z" />
    <glyph glyph-name="Otilde" unicode="&#xd5;" horiz-adv-x="321" 
d="M227 564q0 39 -1 65t-7 42.5t-19.5 23.5t-38.5 7t-38.5 -7t-20 -23.5t-7 -42.5t-0.5 -65v-409q0 -38 1 -64t7.5 -42t20 -22t37.5 -6t37.5 6t19.5 22t7.5 42t1.5 64v409zM161 -7q-24 0 -47.5 8t-43 26t-32 44.5t-12.5 63.5v456q0 31 12.5 57t32 43t43 26t47.5 9
q23 0 47.5 -10.5t43.5 -29t31.5 -43t12.5 -52.5v-458q0 -37 -12.5 -63t-31.5 -43.5t-43 -25.5t-48 -8zM72 794q0 26 11 44t40 18q14 0 30 -7.5t31 -15t28 -12.5t22 0q5 2 8 6.5t4 9.5q1 4 1 9h12q0 -25 -11 -43t-39 -18q-15 0 -30.5 7.5t-30.5 15t-28 12.5t-23 1
q-6 -4 -8 -8.5t-3 -8.5t-1 -10h-13z" />
    <glyph glyph-name="Ucircumflex" unicode="&#xdb;" horiz-adv-x="359" 
d="M139 715v-24q-8 2 -13 0q-4 -2 -8.5 -8.5t-4.5 -21.5v-36v-88t0.5 -116.5t0.5 -119.5v-96.5v-49.5q0 -77 17 -109t48 -32h1h1q31 0 48 32t17 109v78q0 24 1 51v377q0 15 -4 21.5t-9 8.5t-12 0v24h118v-24q-6 2 -12 0q-5 -2 -8.5 -8.5t-3.5 -21.5v-533q0 -32 -12.5 -57.5
t-32.5 -43.5t-43.5 -27t-47.5 -9q-23 0 -47 9t-43.5 27t-31.5 43t-12 57v28.5v63v85.5t-0.5 96t-0.5 96v84v58.5v22.5q0 15 -4.5 21.5t-7.5 8.5q-6 2 -14 0v24h120zM242 758h-14q-4 7 -8 12q-4 6 -9 13t-10 15q-5 7 -11.5 9.5t-11.5 2.5q-4 0 -10 -2.5t-12 -9.5
q-7 -8 -11 -15t-8 -13q-4 -5 -8 -12h-14l58 100h5h6z" />
    <glyph glyph-name="Ugrave" unicode="&#xd9;" horiz-adv-x="359" 
d="M139 715v-24q-8 2 -13 0q-4 -2 -8.5 -8.5t-4.5 -21.5v-36v-88t0.5 -116.5t0.5 -119.5v-96.5v-49.5q0 -77 17 -109t48 -32h1h1q31 0 48 32t17 109v78q0 24 1 51v377q0 15 -4 21.5t-9 8.5t-12 0v24h118v-24q-6 2 -12 0q-5 -2 -8.5 -8.5t-3.5 -21.5v-533q0 -32 -12.5 -57.5
t-32.5 -43.5t-43.5 -27t-47.5 -9q-23 0 -47 9t-43.5 27t-31.5 43t-12 57v28.5v63v85.5t-0.5 96t-0.5 96v84v58.5v22.5q0 15 -4.5 21.5t-7.5 8.5q-6 2 -14 0v24h120zM240 754l-7 -6l-82 59q-31 24 -31 38q0 10 7 17q9 7 17 7q16 0 29 -19z" />
    <glyph glyph-name="Udieresis" unicode="&#xdc;" horiz-adv-x="366" 
d="M142 715v-24q-8 2 -13 0q-4 -2 -8.5 -8.5t-4.5 -21.5v-36v-88t0.5 -116.5t0.5 -119.5v-96.5v-49.5q0 -77 16.5 -109t48.5 -32h1h1q31 0 48 32t17 109v78q0 24 1 51v377q0 15 -4 21.5t-9 8.5t-12 0v24h118v-24q-6 2 -12 0q-5 -2 -8.5 -8.5t-3.5 -21.5v-533
q0 -32 -12.5 -57.5t-32.5 -43.5t-43.5 -27t-47.5 -9q-23 0 -47 9t-43.5 27t-31.5 43t-12 57v28.5v63v85.5t-0.5 96t-0.5 96v84v58.5v22.5q0 15 -4.5 21.5t-8.5 8.5q-5 2 -13 0v24h120zM232 745q-13 0 -21.5 8.5t-8.5 20.5q0 13 8.5 21.5t21.5 8.5t21.5 -8.5t8.5 -21.5
q0 -12 -8.5 -20.5t-21.5 -8.5zM134 745q-12 0 -20.5 8.5t-8.5 20.5q0 13 8.5 21.5t20.5 8.5q13 0 21.5 -8.5t8.5 -21.5q0 -12 -8.5 -20.5t-21.5 -8.5z" />
    <glyph glyph-name="Uacute" unicode="&#xda;" horiz-adv-x="360" 
d="M138 715v-24q-8 2 -13 0q-4 -2 -8.5 -8.5t-4.5 -21.5v-36v-88t0.5 -116.5t0.5 -119.5v-96.5v-49.5q0 -77 17 -109t48 -32h1h1q31 0 48 32t17 109v78q0 24 1 51v377q0 15 -4 21.5t-9 8.5t-12 0v24h119v-24q-7 2 -13 0q-5 -2 -8.5 -8.5t-3.5 -21.5v-533q0 -32 -12.5 -57.5
t-32.5 -43.5t-43.5 -27t-47.5 -9q-23 0 -47 9t-43 27t-31.5 43t-12.5 57v28.5v63v85.5t-0.5 96t-0.5 96v84v58.5v22.5q0 15 -4.5 21.5t-7.5 8.5q-6 2 -14 0v24h120zM191 850q14 19 30 19q8 0 17 -7q7 -9 7 -17q0 -14 -32 -38l-82 -59l-6 6z" />
    <glyph glyph-name="dieresis" unicode="&#xa8;" horiz-adv-x="218" 
d="M158 745q-13 0 -21.5 8.5t-8.5 20.5q0 13 8.5 21.5t21.5 8.5t21.5 -8.5t8.5 -21.5q0 -12 -8.5 -20.5t-21.5 -8.5zM60 745q-12 0 -20.5 8.5t-8.5 20.5q0 13 8.5 21.5t20.5 8.5q13 0 22 -8.5t9 -21.5q0 -12 -9 -20.5t-22 -8.5z" />
    <glyph glyph-name="Ntilde" unicode="&#xd1;" horiz-adv-x="341" 
d="M321 715v-24q-9 2 -15 0q-4 -2 -8 -8.5t-4 -21.5v-661h-33l-188 575v-521q0 -14 4 -20.5t9 -7.5q5 -3 12 0v-26h-78v26q8 -3 14 0q3 1 8 7.5t5 20.5v607q0 15 -5 21.5t-8 8.5q-6 2 -14 0v24h91l158 -521v84.5v99.5t-0.5 102t-0.5 90.5v64.5v26q0 15 -4 21.5t-9 8.5t-12 0
v24h78zM80 794q0 26 11.5 44t39.5 18q15 0 31 -7.5t30.5 -15t27.5 -12.5t23 0q5 2 7.5 6.5t3.5 9.5q1 4 1 9h13q0 -25 -11 -43t-40 -18q-14 0 -30 7.5t-30.5 15t-28 12.5t-21.5 1q-7 -4 -9.5 -8.5t-3.5 -8.5t-1 -10h-13z" />
    <glyph glyph-name="tilde" unicode="&#x2dc;" horiz-adv-x="237" 
d="M24 794q0 26 11.5 44t39.5 18q15 0 31 -7.5t30.5 -15t28 -12.5t22.5 0q5 2 8 6.5t3 9.5q1 4 1 9h13q0 -25 -11 -43t-39 -18q-15 0 -31 7.5t-30.5 15t-28 12.5t-21.5 1q-7 -4 -9.5 -8.5t-3.5 -8.5t-1 -10h-13z" />
    <glyph glyph-name="Ccedilla" unicode="&#xc7;" horiz-adv-x="320" 
d="M163 691q-32 0 -54 -25.5t-22 -86.5v-221v-221q0 -62 21.5 -88t53.5 -26q25 0 45.5 7t35.5 22.5t23 41.5t8 65v27h24v-51q0 -62 -34 -97.5t-93 -37.5l-14 -28q3 0 6 1q4 0 8 0.5t11 -1.5q18 -2 34 -15t16 -42q-2 -29 -21 -49t-53 -20q-6 0 -13 1q-23 3 -36 17.5t-15.5 30
t4.5 28t23 12.5q10 0 17.5 -6t7.5 -15q0 -7 -5.5 -12.5t-13.5 -6.5h-1q-8 -2 -10 -8.5t3 -13.5q6 -8 15 -12t21 -4t19 3.5t10.5 11t4.5 17.5t1 22v7q0 23 -9 30.5t-19 9.5q-13 1 -29 -4l22 46q-23 2 -46 12t-41 27t-30 41t-12 55v223v222q0 33 12.5 57.5t32.5 42t44 26.5
t48 9q34 0 56 -8t34.5 -13t16.5 -3t4 23h24v-173h-22q-1 18 -5 36q-2 15 -6.5 33t-11.5 34l-7.5 12.5t-14.5 15t-26 13.5t-42 6zM232 -89v4v3v-7z" />
    <glyph glyph-name="ccedilla" unicode="&#xe7;" horiz-adv-x="325" 
d="M233 -93v4v-9v5zM158 -35q2 0 5 1q3 0 8 0.5t12 -1.5q18 -4 34 -16.5t16 -41.5q-2 -29 -21 -49t-53 -20h-7.5t-6.5 1q-22 3 -35 17.5t-16 29.5t4.5 28t23.5 13q10 0 17 -6t7 -15q0 -15 -18 -20h-2q-7 -2 -9 -8t3 -14q6 -7 14.5 -11.5t20.5 -4.5q25 0 29.5 15.5t5.5 38.5
q1 6 0.5 4.5t-0.5 4.5q0 22 -9 30t-19 10q-12 1 -28 -5l27 57l15 -1zM163 475q-31 -2 -52.5 -32.5t-21.5 -91.5v-221q0 -31 5.5 -52.5t15.5 -35.5t23.5 -20t29.5 -6q22 -1 43 4.5t37.5 19t26.5 38t10 63.5h23v-13q0 -28 -8 -52.5t-24.5 -43t-43 -29t-64.5 -10.5q-23 0 -48 9
t-45 26.5t-33.5 43t-13.5 56.5v223q0 35 13.5 62t33.5 46t45 28.5t48 9.5q9 0 17.5 -0.5t17.5 -2.5q3 0 10 -3q1 -1 3 -1l8 -3q8 -3 18 -8t18.5 -7.5t14 1t5.5 17.5h28v-169h-24q1 23 -3 46q-3 19 -10.5 40t-21.5 38q-5 4 -9.5 7.5t-8.5 7.5h-1h-1q-15 8 -30 11.5t-31 3.5z
" />
    <glyph glyph-name="Euro" unicode="&#x20ac;" horiz-adv-x="368" 
d="M342 553v-1q-2 -12 -11 -20t-21 -8q-13 0 -22.5 9t-9.5 23q0 1 2 21.5t-1.5 45.5t-17.5 45.5t-43 20.5q-21 0 -33.5 -17t-20 -51.5t-10 -86t-2.5 -123.5h125v-23h-125v-31v-32h125v-24h-125q1 -141 13 -209t52 -68q29 0 41.5 15t16 34t1 34.5t-2.5 16.5q0 13 9 22t21 9
q13 0 22.5 -9t9.5 -22q0 -10 -5 -31t-17.5 -42t-35.5 -36.5t-59 -15.5q-67 0 -99.5 71.5t-35.5 230.5h-73v24h73v24v39h-73v23h74q1 73 9.5 130t23.5 95.5t40 58t61 19.5q30 0 52 -10.5t35 -28.5t21.5 -38t11.5 -38t3.5 -30t0.5 -13v-3z" />
    <glyph glyph-name="fraction" unicode="&#x2044;" horiz-adv-x="319" 
d="M318 716l-291 -717h-26q82 200 146 358q27 68 53.5 132t47.5 115t33.5 81.5l12.5 30.5h24z" />
    <glyph glyph-name="Ydieresis" unicode="&#x178;" horiz-adv-x="382" 
d="M375 715v-24q-6 2 -14 0q-7 -2 -13 -8.5t-11 -21.5q0 -2 -11 -37t-29 -90t-39.5 -121.5t-42.5 -131.5v-1v-226q0 -14 4 -20.5t9 -7.5q5 -3 12 0v-26h-120v26q4 -1 7 -1t7 1t6 4q5 7 5 24v226q-16 65 -33 132t-31 122t-23.5 90.5t-9.5 36.5q-4 15 -10.5 21.5t-12.5 8.5
q-9 2 -16 0v24h127v-24q-9 2 -13 0t-7 -8.5t2 -21.5q0 -1 7 -29t19 -73.5t26 -103t30 -116.5q19 59 37.5 116.5t33 103t24 73.5t9.5 29q5 15 3 21.5t-7 8.5q-3 2 -12 0v24h87zM241 745q-13 0 -21.5 8.5t-8.5 20.5q0 13 8.5 21.5t21.5 8.5t21.5 -8.5t8.5 -21.5
q0 -12 -8.5 -20.5t-21.5 -8.5zM144 745q-13 0 -21.5 8.5t-8.5 20.5q0 13 8.5 21.5t21.5 8.5q12 0 21 -8.5t9 -21.5q0 -12 -9 -20.5t-21 -8.5z" />
    <glyph glyph-name="periodcentered" unicode="&#xb7;" horiz-adv-x="128" 
d="M68 382q17 -2 28 -15t9 -29q-2 -17 -15 -27.5t-30 -8.5q-16 2 -27 15t-9 29q2 17 15 27.5t29 8.5z" />
    <glyph glyph-name="minus" unicode="&#x2212;" horiz-adv-x="395" 
d="M360 319v-29h-325v29h325z" />
    <glyph glyph-name="Yacute" unicode="&#xdd;" horiz-adv-x="378" 
d="M373 715v-24q-6 2 -14 0q-6 -2 -12.5 -8.5t-11.5 -21.5q0 -2 -11 -37t-29 -90t-39.5 -121.5t-42.5 -131.5v-1v-226q0 -14 4 -20.5t9 -7.5q5 -3 13 0v-26h-120v26q3 -1 6 -1t7 1t6 4q6 7 6 24v226q-17 65 -34 132t-31 122t-23 90.5t-9 36.5q-5 15 -11 21.5t-13 8.5
q-9 2 -16 0v24h127v-24q-9 2 -13 0t-7 -8.5t2 -21.5q0 -1 7 -29t19 -73.5t26 -103t30 -116.5q19 59 37.5 116.5t33 103t24 73.5t9.5 29q5 15 3 21.5t-6 8.5t-13 0v24h87zM208 850q13 19 30 19q7 0 17 -7q7 -9 7 -17q0 -14 -33 -38l-81 -59l-6 6z" />
    <glyph glyph-name="yacute" unicode="&#xfd;" horiz-adv-x="415" 
d="M410 488v-26q-8 3 -16 -1q-5 -3 -12.5 -13t-15.5 -34q-1 -2 -7 -24t-15.5 -58t-22.5 -81.5t-26.5 -93.5t-26.5 -94.5t-24 -85t-19 -64.5t-12 -32q-12 -28 -35 -48.5t-54 -22.5q-8 0 -16 1t-18 4q-14 4 -27 14.5t-22 26t-12 34t3 39.5v1v1q0 2 1 3q4 18 19.5 27t33.5 4
t27 -20.5t5 -33.5q-5 -17 -19 -26t-31 -6q0 -33 28 -41q15 -5 26.5 5.5t21.5 28.5q2 3 12 40t25 88l-20 72.5t-25 89.5t-25.5 92t-23 83t-17 62t-7.5 27q-8 20 -16 29.5t-15 10.5q-9 3 -18 -1v23h101v-23q-9 1 -13 -2q-5 -3 -6 -12t7 -28l5 -19.5t13 -50.5t18 -70t21 -79
t21 -77.5t17 -64.5q16 56 33 117.5t30.5 112.5l22.5 85t10 37q5 24 2.5 34t-8.5 13q-6 4 -16 1v26h138zM204 652q14 19 30 19q8 0 17 -8q8 -8 8 -16q0 -14 -33 -39l-81 -59l-6 7z" />
    <glyph glyph-name="cedilla" unicode="&#xb8;" horiz-adv-x="173" 
d="M156 -96v4v-8v4zM81 -38q3 0 6 1q3 0 7.5 0.5t11.5 -1.5q18 -4 34 -16.5t16 -41.5q-2 -28 -21 -48.5t-53 -20.5q-6 0 -13 2q-23 2 -36 16.5t-16 30t4.5 28t23.5 12.5q9 0 17 -5.5t8 -15.5q0 -7 -5.5 -12.5t-13.5 -7.5h-1q-8 -1 -10 -7.5t3 -13.5q6 -7 15 -11.5t21 -4.5
q11 0 18 4t10.5 11t4.5 17t2 22v8q0 23 -9 30.5t-19 9.5q-14 1 -29 -5l27 57l15 -1z" />
    <glyph glyph-name="ring" unicode="&#x2da;" horiz-adv-x="170" 
d="M128 851q18 -18 18 -43q0 -24 -18 -42t-43 -18t-43 18q-18 17 -18 41q0 27 18 44q17 18 44 18q25 0 42 -18zM111 783q11 10 11 25t-10 27q-11 10 -26 10t-27 -11q-11 -11 -11 -27q0 -15 10 -25q13 -11 28 -11q14 0 25 12z" />
    <glyph glyph-name="Scaron" unicode="&#x160;" horiz-adv-x="278" 
d="M149 419q60 -86 87 -159.5t14 -144.5q-4 -24 -12 -45.5t-21.5 -37.5t-33.5 -27t-46 -12q-18 -1 -32.5 7.5t-25.5 15t-18 5.5t-8 -21h-23v178h24q-3 -43 3 -79q3 -15 8.5 -29.5t14.5 -26.5t22 -20t32 -9q14 -1 29.5 8t24.5 23q23 34 19.5 72.5t-20.5 76.5t-39.5 71
t-38.5 57q-59 85 -75 162t-2 141q9 47 34.5 74t75.5 27q17 0 31 -9.5t23.5 -16.5t15 -6t6.5 22h26v-175h-26q2 44 -5 79q-3 15 -8.5 29t-13.5 26t-19.5 18.5t-28.5 6.5t-33 -8t-24 -21q-22 -33 -20.5 -68t14.5 -68.5t33.5 -63t35.5 -52.5zM149 758h-5h-5l-58 100h13
q5 -6 9 -13q3 -5 7.5 -12t11.5 -14q6 -8 12 -10.5t10 -2.5q5 0 11 2.5t12 10.5l10 14t9 12q3 7 8 13h13z" />
    <glyph glyph-name="scaron" unicode="&#x161;" horiz-adv-x="284" 
d="M198 6l-1 -1l-1 -1l-1 -1q-3 -1 -5 -2l-4 -2q-22 -9 -50 -9q-15 0 -30 7.5t-26 12.5t-18.5 4.5t-7.5 -14.5h-19v120h23q-2 -32 7 -55q7 -20 24.5 -37.5t52.5 -17.5q22 0 37 8q27 13 36.5 31t7 37.5t-14.5 38.5t-30 35q-12 9 -25 19t-27 21q-34 28 -54.5 50.5t-32 42
t-15.5 37t-4 37.5q0 12 1.5 22t3.5 18q3 17 10 33t20.5 28.5t32.5 20.5t45 8q16 0 31 -6.5t26.5 -12t18.5 -5t7 15.5h19v-124h-26q2 30 -6 54q-7 21 -24.5 38t-52.5 17q-27 0 -44 -12q-8 -7 -15 -20.5t-8 -29.5t5.5 -34.5t24.5 -34.5q2 -3 5 -6t7 -5t6 -4l4 -4l22 -18
t24 -18q28 -24 46.5 -43.5t30.5 -36.5t18 -32t8 -29q9 -46 -4 -77.5t-35 -49.5h-1q0 -2 -2 -2l-3 -3l-6 -4t-6 -3q-1 0 -1 -1q-1 0 -2 -0.5t-2 -0.5zM147 534h-5h-6l-58 101h14q4 -7 8 -13q4 -5 8 -12.5t11 -14.5q6 -8 12 -10.5t11 -2.5q4 0 10.5 2.5t11.5 10.5q5 7 10 14.5
t9 12.5q4 6 8 13h14z" />
    <glyph glyph-name="caron" unicode="&#x2c7;" horiz-adv-x="152" 
d="M81 758h-6h-5l-57 100h13q5 -6 7 -13q4 -5 9 -12l10 -14q7 -8 12.5 -10.5t10.5 -2.5t11 2.5t12 10.5l10 14t9 12q4 7 8 13h14z" />
    <glyph glyph-name="Zcaron" unicode="&#x17d;" horiz-adv-x="266" 
d="M253 715v-22v-1l-172 -668h92q20 0 31.5 12.5t16.5 28.5q5 18 6 41h26v-106h-240v0v24v0v2l171 667h-92q-21 0 -32 -13.5t-15 -28.5q-6 -18 -7 -41h-25v105h240zM137 758h-6h-5l-58 100h14q4 -6 7 -13q4 -5 9 -12l10 -14q7 -8 13 -10.5t10 -2.5q5 0 11 2.5t12 10.5l10 14
t9 12q3 7 8 13h13z" />
    <glyph glyph-name="zcaron" unicode="&#x17e;" horiz-adv-x="304" 
d="M285 135v-135h-267q50 127 89 228q16 44 32 85t28.5 74.5t20.5 54.5t9 23h-85q-27 0 -41.5 -17t-18.5 -38q-8 -23 -7 -55h-27v135l267 1q-52 -127 -92 -230q-17 -43 -33.5 -84.5t-30 -75t-21.5 -54t-8 -22.5h97q27 0 39.5 17t16.5 38q6 24 4 55h28zM161 534h-5h-6
l-57 101h14q4 -7 7 -13q4 -5 8.5 -12.5t10.5 -14.5q7 -8 12.5 -10.5t10.5 -2.5t11 2.5t12 10.5q5 7 10 14.5t8 12.5q4 6 9 13h13z" />
    <glyph glyph-name="endash" unicode="&#x2013;" horiz-adv-x="276" 
d="M242 280h-207v24h207v-24z" />
    <glyph glyph-name="emdash" unicode="&#x2014;" horiz-adv-x="518" 
d="M483 281h-448v24h448v-24z" />
    <glyph glyph-name="circumflex" unicode="&#x2c6;" horiz-adv-x="156" 
d="M141 758h-13q-5 7 -8 12q-4 6 -9 13t-10 15q-6 7 -12 9.5t-11 2.5t-10.5 -2.5t-12.5 -9.5q-5 -8 -10 -15t-9 -13q-3 -5 -7 -12h-14l57 100h6h6z" />
    <glyph glyph-name="AE" unicode="&#xc6;" horiz-adv-x="446" 
d="M336 24q19 0 30.5 12t16.5 28q6 18 7 41h25v-105h-250v26q8 -3 13 0q5 1 9.5 7.5t4.5 20.5v212h-65q-9 -42 -17 -80.5t-14.5 -68t-9.5 -46.5l-3 -17q-3 -14 0 -20.5t7 -7.5q6 -3 15 0v-26h-93v26q8 -3 16 0q5 1 11.5 7.5t9.5 20.5q0 1 5.5 27t15.5 69t22.5 97.5t25 112
t25.5 112.5t23 99.5t16.5 73t7.5 31.5q2 7 -2 10.5t-9 4.5t-14 0v24h250v-105h-25q-1 23 -7 41q-5 15 -16.5 28.5t-30.5 13.5h-76v-403h42q14 0 20.5 7t9.5 17q4 11 4 25h22v-122h-22q0 13 -4 24q-3 10 -9.5 17.5t-20.5 7.5h-42v-242h76zM192 574q-5 -23 -11.5 -55
t-15 -69.5t-17 -78t-16.5 -81.5h60v284z" />
    <glyph glyph-name="notequal" unicode="&#x2260;" horiz-adv-x="334" 
d="M202 408l-61 -130h190v-30h-204l-95 -203h-28q12 27 27 59q14 29 31 65t37 79h-96v30h110q15 32 30.5 65t30.5 65h-171v31h185q21 46 41 88.5t35 74.5q17 37 33 70h28l-108 -233h114v-31h-129z" />
    <glyph glyph-name="germandbls" unicode="&#xdf;" horiz-adv-x="450" 
d="M341 359q36 -15 58 -59t22 -122q0 -37 -10 -69t-29.5 -56t-47.5 -37.5t-64 -13.5t-61.5 15.5t-40.5 39.5t-19.5 52t0 52t18.5 40t37 16q21 0 35.5 -14.5t14.5 -35.5q0 -17 -10 -30t-27 -17q-1 -1 -4 -1q-15 -4 -17.5 -19.5t5.5 -32.5q11 -16 28.5 -27.5t43.5 -11.5
q25 0 37.5 9.5t18 27t6.5 41t2 52.5t0.5 58.5t-6 55t-16.5 45t-31 29.5q-3 1 -18.5 1.5t-32.5 0.5q-21 0 -45 -1v23h45h32t19 2q19 7 29.5 26.5t16 45.5t6.5 56.5t1 59.5q0 64 -21 96t-64 37h-65h34q-15 0 -33 -5t-32.5 -19.5t-24.5 -42.5t-10 -74v-31.5v-60.5v-80.5
t-0.5 -89.5t-0.5 -87v-75v-53v-21q0 -14 4 -20.5t8 -7.5q6 -3 13 0v-26h-119v26q8 -3 12 0q5 1 9.5 7.5t4.5 20.5v22v55v77.5t0.5 89t0.5 89.5v80v59.5v26.5q0 33 11.5 62t31 51.5t43.5 35.5t48 13h79h4h13h1v-1q66 -3 101.5 -53t35.5 -129q0 -28 -5.5 -55.5t-16.5 -51
t-25.5 -41t-32.5 -25.5z" />
    <glyph glyph-name="yen" unicode="&#xa5;" horiz-adv-x="392" 
d="M381 717v-24q-6 1 -14 0q-7 -2 -13.5 -9t-11.5 -21q0 -1 -10 -31.5t-25.5 -79.5t-35 -109t-39.5 -121h84v-24h-91q-2 -4 -2.5 -7t-1.5 -8v-1v-46h95v-24h-95v-158q0 -14 4 -20.5t8 -7.5q6 -3 13 0v-26h-120v26q3 -1 7 -1q3 0 6.5 1t6.5 4q1 4 3 9.5t2 14.5v158h-102v24
h102v46q-2 5 -2.5 8.5t-1.5 7.5h-98v24h92q-15 61 -31 121t-28.5 108t-20.5 78.5t-8 31.5q-3 15 -9.5 21.5t-12.5 8.5q-9 2 -17 0v24h126v-24q-8 2 -12 0q-5 -2 -7.5 -8.5t1.5 -21.5q0 -1 8 -29t19 -73t26 -102.5t30 -115.5q19 59 37.5 116t33 102.5t24 74t9.5 29.5
q5 14 3 21t-7 9q-4 1 -12 0v24h88z" />
    <glyph glyph-name="mu" unicode="&#xb5;" horiz-adv-x="421" 
d="M223 418h-2q-1 0 -2 0.5t-3 0.5t-5 -1t-5 -4q-6 -6 -7 -18v-48v-60.5v-63.5v-58.5t0.5 -44t0.5 -20.5v-1q2 -46 18 -64.5t39 -20.5h3q27 0 40.5 21.5t19.5 73.5v281q0 18 -6 23t-11 5q-2 0 -3 -0.5t-2 -0.5h-2v23h109v-23h-2q-1 0 -2 0.5t-3 0.5q-3 0 -10 -5t-7 -23v-343
q0 -18 7 -21.5t10 -3.5h5q1 0 2 1v-24h-85v36q-1 -1 -5.5 -6.5t-11 -13t-17 -13t-25.5 -5.5q-18 0 -30.5 5.5t-18.5 9.5q-9 9 -13 16q0 -9 -0.5 -21.5t-0.5 -22.5v-27q-1 -14 -5 -33.5t-14.5 -37t-28.5 -30t-45 -13.5h-4q-30 0 -48 16t-26.5 36.5t-5.5 40t15 28.5q3 2 7 5
q4 1 7.5 2t9.5 1q10 0 19 -4q15 -11 19 -22t1.5 -21t-9 -18t-13.5 -11q-6 -2 -8 -7.5t0.5 -11t10 -10t19.5 -4.5h4q10 1 16.5 9.5t9.5 22.5t5 30t2 30v435q0 17 -8.5 21.5t-13.5 4.5q-1 0 0.5 1t0.5 0h-1h-1v23h110v-23z" />
    <glyph glyph-name="mu" unicode="&#x3bc;" horiz-adv-x="421" 
d="M223 418h-2q-1 0 -2 0.5t-3 0.5t-5 -1t-5 -4q-6 -6 -7 -18v-48v-60.5v-63.5v-58.5t0.5 -44t0.5 -20.5v-1q2 -46 18 -64.5t39 -20.5h3q27 0 40.5 21.5t19.5 73.5v281q0 18 -6 23t-11 5q-2 0 -3 -0.5t-2 -0.5h-2v23h109v-23h-2q-1 0 -2 0.5t-3 0.5q-3 0 -10 -5t-7 -23v-343
q0 -18 7 -21.5t10 -3.5h5q1 0 2 1v-24h-85v36q-1 -1 -5.5 -6.5t-11 -13t-17 -13t-25.5 -5.5q-18 0 -30.5 5.5t-18.5 9.5q-9 9 -13 16q0 -9 -0.5 -21.5t-0.5 -22.5v-27q-1 -14 -5 -33.5t-14.5 -37t-28.5 -30t-45 -13.5h-4q-30 0 -48 16t-26.5 36.5t-5.5 40t15 28.5q3 2 7 5
q4 1 7.5 2t9.5 1q10 0 19 -4q15 -11 19 -22t1.5 -21t-9 -18t-13.5 -11q-6 -2 -8 -7.5t0.5 -11t10 -10t19.5 -4.5h4q10 1 16.5 9.5t9.5 22.5t5 30t2 30v435q0 17 -8.5 21.5t-13.5 4.5q-1 0 0.5 1t0.5 0h-1h-1v23h110v-23z" />
    <glyph glyph-name="OE" unicode="&#x152;" horiz-adv-x="448" 
d="M391 611q-1 23 -7 41q-3 15 -14.5 28t-32.5 13h-75v-321h43q12 0 18.5 8t9.5 17q4 11 4 26h24v-124h-24q0 14 -4 25q-3 9 -9.5 17.5t-18.5 8.5h-43v-326h75q21 0 32.5 12t14.5 28q6 18 7 41h26v-105h-250q-23 0 -47 9t-43.5 26t-31.5 42t-12 57v441q0 37 12 63.5t31 43.5
t43 25t47 8l1 1h250v-105h-26zM193 662q0 17 -9.5 24.5t-23 6t-28 -13.5t-23.5 -32q-10 -17 -9 -39t1 -53v-394v-40t5 -34q9 -28 23.5 -44t28.5 -20.5t24.5 0.5t10.5 18v621z" />
    <glyph glyph-name="asciicircum" unicode="^" horiz-adv-x="286" 
d="M132 560h21l120 -347h-21q-15 43 -30.5 87.5t-30 86t-27.5 79t-22 64.5l-21.5 -64.5t-27.5 -79t-30 -86t-31 -87.5h-19z" />
    <glyph glyph-name="bar" unicode="|" horiz-adv-x="88" 
d="M58 715v-902h-23v902h23z" />
    <glyph glyph-name="brokenbar" unicode="&#xa6;" horiz-adv-x="88" 
d="M58 715v-418h-23v418h23zM58 232v-419h-23v419h23z" />
    <glyph glyph-name="B" unicode="B" horiz-adv-x="337" 
d="M314 489q0 -33 -9 -57.5t-21.5 -41t-27 -25t-26.5 -8.5q11 0 25.5 -8t27.5 -24.5t22 -42t9 -60.5v-85q0 -27 -10 -51.5t-26 -43.5t-35 -30.5t-37 -11.5h-95q-38 0 -83 1v25q7 -3 12 0q5 2 9 8.5t4 20.5v604q0 14 -4 20.5t-9 8.5t-12 0v25h154q35 0 60 -11t41 -29.5
t23.5 -41.5t7.5 -47v-95zM122 690v-321h49q22 0 41 9.5t30 37.5q2 5 2.5 10t2.5 10q0 3 1 5q2 11 3 23t1 27v113q0 26 -8.5 43.5t-19.5 27.5q-10 7 -22 10t-26 5h-54zM122 24h42q27 0 51.5 16t32.5 54q2 9 3 18.5t1 20.5v90q0 20 -3 37q0 2 -1 3v2q-1 5 -2 10.5t-3 10.5
q-11 30 -31 44t-41 14h-49v-320z" />
    <glyph glyph-name="registered" unicode="&#xae;" horiz-adv-x="554" 
d="M512 440q8 -28 12 -58.5t4 -62.5t-4 -62t-12 -58q-16 -57 -50 -100q-72 -95 -199 -95t-199 95q-34 43 -50 100q-8 28 -12 58t-4 62t4 62.5t12 58.5q17 58 50 100q35 47 85.5 70.5t113.5 23.5t113.5 -23.5t85.5 -70.5q33 -42 50 -100zM263 22q61 0 107.5 23.5t77.5 63.5
t46.5 94t15.5 116q0 61 -15.5 115.5t-46.5 94.5t-77.5 63.5t-107.5 23.5q-62 0 -108 -23.5t-77 -63.5t-46.5 -94.5t-15.5 -115.5q0 -62 15.5 -116t46.5 -94t77 -63.5t108 -23.5zM396 115q6 0 9.5 1.5t7.5 3.5v-20q-6 -5 -13.5 -8.5t-21.5 -3.5q-11 0 -23 4.5t-21.5 14
t-16.5 25.5t-8 39v46q0 20 -5.5 31.5t-13.5 18t-17.5 8.5t-18.5 3h-36v-133q0 -13 3.5 -18.5t7.5 -6.5q5 -3 11 0v-23h-107v23q7 -3 11 0q5 1 9 6.5t4 18.5v352q0 13 -4 19t-9 8q-4 1 -11 0v21h128q33 0 58 -11t42 -29t25.5 -41t8.5 -48v-8q0 -35 -17.5 -67.5t-55.5 -48.5
q51 -21 51 -79v-42q0 -23 3 -39.5t20 -16.5zM218 523v-220h48q7 0 18.5 5t22 15.5t18 26.5t7.5 39v47q0 22 -7.5 38.5t-18 27t-22 16t-18.5 5.5h-48z" />
    <glyph glyph-name="copyright" unicode="&#xa9;" horiz-adv-x="554" 
d="M354 523q11 0 11 18h24v-153h-20q0 24 -5.5 56t-27.5 56q-16 17 -35 22t-37 5q-29 -2 -48.5 -29.5t-19.5 -82.5v-200q0 -31 6 -51t16.5 -31.5t24 -16t29.5 -4.5q19 0 36.5 5.5t31 18t21.5 34.5t8 55h20v-12q0 -26 -7 -48t-22 -38.5t-38.5 -26t-57.5 -9.5q-22 0 -44.5 8.5
t-41 24.5t-30 38.5t-11.5 50.5v203q0 31 11.5 55.5t30 41.5t41 26t44.5 9q11 0 20.5 -0.5t20.5 -5.5q1 -1 2 -1l8 -3q10 -2 20.5 -8.5t18.5 -6.5zM512 440q8 -28 12 -58.5t4 -62.5t-4 -62t-12 -58q-16 -57 -50 -100q-72 -95 -199 -95t-199 95q-34 43 -50 100q-8 28 -12 58
t-4 62t4 62.5t12 58.5q17 58 50 100q35 47 85.5 70.5t113.5 23.5t113.5 -23.5t85.5 -70.5q33 -42 50 -100zM263 22q61 0 107.5 23.5t77.5 63.5t46.5 94t15.5 116q0 61 -15.5 115.5t-46.5 94.5t-77.5 63.5t-107.5 23.5q-62 0 -108 -23.5t-77 -63.5t-46.5 -94.5t-15.5 -115.5
q0 -62 15.5 -116t46.5 -94t77 -63.5t108 -23.5z" />
    <glyph glyph-name="Oslash" unicode="&#xd8;" horiz-adv-x="338" 
d="M311 348v-112t-2.5 -82t-9 -59.5t-19.5 -43.5q-20 -29 -50.5 -44.5t-62.5 -15.5q-31 0 -62 15.5t-51 44.5q-13 19 -19.5 43.5t-9 59.5t-2.5 82v112q0 87 1 143.5t9 94.5q4 32 20 56.5t39 39.5q35 23 75 23t75 -23q23 -15 39.5 -39.5t19.5 -56.5q8 -38 9 -94.5t1 -143.5z
M242 128v99.5t1 120.5q-1 62 -1 120.5v99.5q0 31 -6 52t-16 34t-23.5 19t-29.5 6q-32 0 -53.5 -25t-21.5 -86v-220v-220q0 -63 19 -88.5t57 -25.5q37 0 55.5 25.5t18.5 88.5zM262 718h27l-201 -740h-27q56 206 100 369q19 69 37 135.5t32 119t23 84.5z" />
    <glyph glyph-name="plusminus" unicode="&#xb1;" 
d="M27 30h325v-30h-325v30zM351 242v-30h-148v-149h-30v149h-147v30h147v146h30v-146h148z" />
    <glyph glyph-name="ordfeminine" unicode="&#xaa;" horiz-adv-x="313" 
d="M287 318q0 -6 -2.5 -11.5t-8 -11t-13.5 -9.5t-19 -4q-16 0 -29.5 7.5t-18.5 20.5q-4 7 -6 16q-9 -19 -27.5 -31.5t-41.5 -12.5q-28 0 -49 20q-12 10 -19.5 27t-8.5 39q-1 2 -1 8v1q1 12 4.5 25t10.5 26t17.5 24.5t21.5 19.5q3 1 5 3t5 4q2 1 2.5 1t1.5 1q13 8 22.5 14
t17.5 12q4 3 8 6.5t9 6.5q6 5 12 10.5t8 12.5q5 7 5 17t-2 18q-3 15 -14.5 26.5t-25.5 14.5q-7 2 -12 2q-20 0 -34 -7q-9 -4 -13 -9.5t-4.5 -10t1.5 -7t6 -4.5h1.5t1.5 -1q9 -4 15 -12.5t6 -19.5q0 -13 -9.5 -22.5t-22.5 -9.5q-14 0 -24 9.5t-10 22.5q0 12 3.5 25t9.5 24
q13 19 31.5 28t41.5 9q17 0 33 -6.5t29 -18t22 -27.5t9 -37v-206q0 -12 0.5 -16t0.5 -6v0q0 -9 5.5 -14.5t12.5 -5.5q10 0 15.5 5.5t5.5 13.5h15zM177 336q6 9 7 20.5t1 21.5v129q-3 -3 -6 -5.5t-7 -5.5q-20 -15 -34.5 -27t-24 -25t-15 -28t-7.5 -34v-10q1 -27 14.5 -42
t38.5 -15q12 0 21 6t12 15z" />
    <glyph glyph-name="ordmasculine" unicode="&#xba;" horiz-adv-x="243" 
d="M124 645q17 0 33.5 -5.5t30.5 -17.5t23 -31t9 -45v-158q0 -21 -9 -38.5t-23 -30t-30.5 -20t-33.5 -7.5t-34 6t-30.5 18.5t-22.5 30.5t-9 41v157q0 27 8.5 45.5t22.5 31t31 18t34 5.5zM170 531q0 27 -3 45.5t-9 29.5t-15 15.5t-20 4.5q-22 0 -34 -20.5t-12 -74.5v-125
q0 -53 12 -75.5t34 -22.5q23 0 35 22.5t12 75.5v125z" />
    <glyph glyph-name="paragraph" unicode="&#xb6;" horiz-adv-x="483" 
d="M171 627h290v-24q-8 2 -13 0q-4 -2 -8.5 -8.5t-4.5 -21.5v-607q0 -14 4.5 -20.5t8.5 -7.5q5 -3 13 0v-26h-95v54v607q0 15 -4.5 21.5t-7.5 8.5q-2 0 -9 0.5t-15.5 0.5t-15.5 -0.5t-8 -0.5q-5 -2 -10 -8.5t-5 -21.5v-607v-54h-94v26q7 -3 13 0q4 1 8 7.5t4 20.5v341h-51
q-43 0 -71 23.5t-42.5 59.5t-14.5 77t14 77t42.5 59.5t71.5 23.5zM222 334v268q-31 7 -55 0q-21 -6 -38 -28t-17 -71v-71q0 -45 17 -65t38 -28q24 -9 55 -5z" />
    <glyph glyph-name="hungarumlaut" unicode="&#x2dd;" horiz-adv-x="394" 
d="M90 633q11 24 21.5 37t39.5 13q15 0 30 -8t15 -26q0 -11 -6.5 -19.5t-14.5 -15.5l-135 -117h-12zM254 633q11 24 21.5 37t39.5 13q15 0 30 -8t15 -26q0 -11 -6.5 -19.5t-14.5 -15.5l-135 -117h-12z" />
    <glyph glyph-name="ogonek" unicode="&#x2db;" horiz-adv-x="238" 
d="M207 -157q-14 -15 -40.5 -32t-56.5 -17q-36 0 -57.5 19.5t-21.5 57.5q0 22 12 42t30 36.5t39 29.5t39 21h14q-11 -10 -23 -23t-22 -28t-16.5 -30.5t-6.5 -31.5q0 -23 13 -37t37 -14q18 0 30.5 5.5t24.5 13.5z" />
    <glyph glyph-name="dagger" unicode="&#x2020;" horiz-adv-x="450" 
d="M4 315q0 9 10 12t21.5 4.5t21.5 3.5t10 7q0 4 -4.5 17.5t-4.5 20.5q0 11 8 11q4 0 14 -8.5t27 -20t42 -23t59 -16.5q0 56 -10 98t-22 71t-22 45.5t-10 22.5q0 8 11 8q5 0 18 -3t19 -3q3 0 4.5 11t3 24.5t5 25t11.5 11.5t11.5 -11.5t5 -25t3 -24.5t4.5 -11q5 0 18.5 3
t18.5 3q11 0 11 -8q0 -6 -10 -22.5t-22 -45.5t-22 -71t-10 -98q34 5 59 16.5t42 23t26.5 20t14.5 8.5q8 0 8 -11q0 -7 -4.5 -20.5t-4.5 -17.5q0 -5 9.5 -7t21.5 -3.5t21.5 -4.5t9.5 -12t-9.5 -12.5t-21.5 -5t-21.5 -3t-9.5 -6.5q0 -4 4.5 -17.5t4.5 -20.5q0 -11 -8 -11
q-5 0 -14.5 8.5t-26.5 20t-42 22.5t-59 17q0 -93 10 -175.5t21.5 -144.5t21.5 -100.5t10 -44.5q0 -13 -10 -13q-8 0 -19 4.5t-15 4.5t-5.5 -11.5t-3.5 -25.5t-6 -25.5t-12 -11.5q-9 0 -12.5 11.5t-5.5 25.5t-3.5 25.5t-5.5 11.5t-15 -4.5t-19 -4.5q-10 0 -10 13q0 6 10 44.5
t21.5 100.5t21.5 144.5t10 175.5q-34 -6 -59 -17t-42 -22.5t-27 -20t-14 -8.5q-8 0 -8 11q0 7 4.5 20.5t4.5 17.5q0 5 -10 6.5t-21.5 3t-21.5 5t-10 12.5z" />
    <glyph glyph-name="daggerdbl" unicode="&#x2021;" horiz-adv-x="450" 
d="M216 634q9 0 12.5 -11.5t5 -25t2.5 -25t6 -11.5q8 0 17.5 3t16.5 3q5 0 9.5 -2t4.5 -8q0 -5 -10.5 -18.5t-22.5 -36t-22.5 -54.5t-10.5 -75q33 0 57.5 10.5t42 22.5t28 22.5t15.5 10.5q10 0 10 -10q0 -2 -2 -7t-4.5 -11t-4.5 -11t-2 -8q0 -5 10 -6t21 -3q12 -2 22 -5.5
t10 -13.5q0 -9 -10 -12.5t-22 -5.5q-11 -2 -21 -3t-10 -6q0 -3 2 -8t4.5 -11t4.5 -11t2 -7q0 -10 -10 -10q-5 0 -15.5 10.5t-28 22.5t-42 22.5t-57.5 10.5q0 -42 13 -82t36 -75q-23 -35 -36 -75.5t-13 -82.5q33 0 57.5 10.5t42 23t28 23t15.5 10.5q10 0 10 -10
q0 -5 -6.5 -18.5t-6.5 -18.5t10 -6t21 -3q12 -2 22 -5.5t10 -13.5q0 -9 -10 -13t-22 -6q-11 -2 -21 -2.5t-10 -6.5q0 -2 2 -7t4.5 -11t4.5 -11t2 -8q0 -9 -10 -9q-5 0 -15.5 10.5t-28 22.5t-42 22.5t-57.5 10.5q0 -43 10.5 -75t22.5 -54.5t22.5 -36t10.5 -18.5q0 -6 -4.5 -8
t-9.5 -2q-7 0 -16.5 3t-17.5 3q-5 0 -6 -11.5t-2.5 -25t-5 -25t-12.5 -11.5t-12.5 11.5t-5 25t-3 25t-5.5 11.5q-8 0 -17.5 -3t-16.5 -3q-14 0 -14 10q0 5 10.5 18.5t22.5 36t22.5 54.5t10.5 75q-33 0 -57.5 -10.5t-42.5 -22.5t-28.5 -22.5t-14.5 -10.5q-10 0 -10 9q0 3 2 8
t4.5 11t4.5 11t2 7q0 6 -10 6.5t-21 2.5q-12 2 -22.5 6t-10.5 13q0 10 10.5 13.5t22.5 5.5q11 2 21 3t10 6t-6.5 18.5t-6.5 18.5q0 10 10 10q4 0 14.5 -10.5t28.5 -23t42.5 -23t57.5 -10.5q0 41 -11 82t-36 76q25 35 36 75.5t11 81.5q-33 0 -57.5 -10.5t-42.5 -22.5
t-28.5 -22.5t-14.5 -10.5q-10 0 -10 10q0 2 2 7t4.5 11t4.5 11t2 8q0 5 -10 6t-21 3q-12 2 -22.5 5.5t-10.5 12.5q0 10 10.5 13.5t22.5 5.5q11 2 21 3t10 6q0 3 -2 8t-4.5 11t-4.5 11t-2 7q0 10 10 10q4 0 14.5 -10.5t28.5 -22.5t42.5 -22.5t57.5 -10.5q0 43 -10.5 75
t-22.5 54.5t-22.5 36t-10.5 18.5q0 10 14 10q7 0 16.5 -3t17.5 -3q4 0 5.5 11.5t3 25t5 25t12.5 11.5z" />
    <glyph glyph-name="degree" unicode="&#xb0;" horiz-adv-x="328" 
d="M77 508q0 -36 22 -61.5t60 -25.5q37 0 59.5 25.5t22.5 61.5t-22.5 61.5t-59.5 25.5q-38 0 -60 -25.5t-22 -61.5zM28 508q0 28 10 52t27.5 41.5t41.5 27.5t52 10t51.5 -10t41 -27.5t27.5 -41.5t10 -52t-10 -51.5t-27.5 -41t-41 -27.5t-51.5 -10t-52 10t-41.5 27.5
t-27.5 41t-10 51.5z" />
    <glyph glyph-name="cent" unicode="&#xa2;" horiz-adv-x="338" 
d="M226 459q-19 10 -44 13v-458q19 1 37.5 7.5t32 21t22 38t8.5 58.5h22v-13q0 -53 -27.5 -91t-94.5 -43v-69h-23v68q-23 1 -47 11.5t-43 27.5t-31 41.5t-12 54.5v224q0 33 12 59.5t31 45t43 29t47 12.5v80h23v-81q9 0 18 -3q3 0 11 -3q1 -1 3 -1l8 -3q8 -2 18 -7t18.5 -8
t14 0t5.5 18h26v-169h-22q0 23 -3 46q-3 19 -10.5 40.5t-22.5 37.5q-4 4 -9 7.5t-9 7.5q-1 0 -1 0.5t-1 0.5zM159 14v458q-29 -5 -48.5 -35.5t-19.5 -87.5v-221q0 -58 19.5 -84.5t48.5 -29.5z" />
    <glyph glyph-name="bullet" unicode="&#x2022;" horiz-adv-x="610" 
d="M372 314q0 -26 -19.5 -45t-45.5 -19q-27 0 -45.5 19t-18.5 45t18.5 45.5t45.5 19.5q26 0 45.5 -19.5t19.5 -45.5z" />
    <glyph glyph-name="breve" unicode="&#x2d8;" horiz-adv-x="338" 
d="M45 676q1 -21 12 -38t27.5 -28t37 -17t41.5 -6t41.5 6t37 17t27 28t12.5 38h12q0 -31 -7.5 -59t-23 -49.5t-40.5 -34t-59 -12.5q-35 0 -59.5 12.5t-40 34t-23 49.5t-7.5 59h12z" />
    <glyph glyph-name="dotaccent" unicode="&#x2d9;" horiz-adv-x="255" 
d="M70 579q0 25 18 43.5t44 18.5q25 0 43.5 -18.5t18.5 -43.5t-18.5 -43.5t-43.5 -18.5q-26 0 -44 18.5t-18 43.5z" />
    <glyph glyph-name="macron" unicode="&#xaf;" horiz-adv-x="320" 
d="M-6 658h290v-54h-290v54z" />
    <glyph glyph-name="divide" unicode="&#xf7;" horiz-adv-x="383" 
d="M4 329h325v-31h-325v31zM206 432q0 -18 -11.5 -29.5t-28.5 -11.5q-18 0 -30 11.5t-12 29.5t12 29.5t30 11.5q17 0 28.5 -11.5t11.5 -29.5zM206 206q0 -18 -11.5 -29.5t-28.5 -11.5q-18 0 -30 11.5t-12 29.5q0 17 12 29t30 12q17 0 28.5 -12t11.5 -29z" />
    <glyph glyph-name="trademark" unicode="&#x2122;" horiz-adv-x="469" 
d="M200 627v-53h-13q-1 12 -3 21q-3 8 -8.5 14.5t-15.5 6.5h-21v-319q0 -7 2 -10.5t5 -3.5q2 -2 6 0v-13h-61v13q4 -2 7 0q2 0 4.5 3.5t2.5 10.5v319h-21q-11 0 -16.5 -6.5t-7.5 -14.5q-3 -9 -3 -21h-14v53h157zM412 615q-4 1 -7 0q-2 -1 -4 -4t-2 -11v-303q0 -7 2 -10.5
t4 -3.5q3 -2 7 0v-13h-61v13q4 -2 6 0q3 0 5.5 3.5t2.5 10.5v274q-13 -52 -24 -93q-4 -18 -8 -35t-7.5 -30.5t-5.5 -22l-2 -8.5h-21q-3 11 -7 26t-8 30.5l-8 31t-8 30.5q-9 35 -18 71v-274q0 -7 2 -10t4 -4q3 -1 7 0v-13h-43v13q4 -1 6 0q3 1 5 4t2 10v303q0 8 -2 11t-5 4
q-2 1 -6 0v12h49l50 -189l48 189h47v-12z" />
    <glyph glyph-name="quotedblbase" unicode="&#x201e;" horiz-adv-x="262" 
d="M165 4q-20 11 -20 35q0 16 11 26.5t26 10.5q20 0 30 -14h1q0 -1 0.5 -1.5t0.5 -1.5q11 -15 12 -36t-6.5 -44t-21.5 -45t-33 -39l-17 5q20 23 30.5 40.5t13 29.5t-2 20t-15.5 12q-2 0 -4.5 0.5t-4.5 1.5zM51 4q-10 5 -15.5 14t-5.5 21q0 16 11.5 26.5t27.5 10.5
q18 0 29 -14q0 -1 2 -3q11 -15 11.5 -36t-7 -44t-21 -45t-32.5 -39l-17 5q20 23 30 40.5t12.5 29.5t-1.5 20t-16 12q-1 0 -3.5 0.5t-4.5 1.5z" />
    <glyph glyph-name="quotesinglbase" unicode="&#x201a;" horiz-adv-x="262" 
d="M51 4q-10 5 -15.5 14t-5.5 21q0 16 11.5 26.5t27.5 10.5q18 0 29 -14q0 -1 2 -3q11 -15 11.5 -36t-7 -44t-21 -45t-32.5 -39l-17 5q20 23 30 40.5t12.5 29.5t-1.5 20t-16 12q-1 0 -3.5 0.5t-4.5 1.5z" />
    <glyph glyph-name="sterling" unicode="&#xa3;" horiz-adv-x="434" 
d="M402 137q4 -35 -6 -65q-8 -26 -31.5 -49.5t-71.5 -30.5q-34 -5 -66 7t-55 32q-24 -28 -54.5 -37t-56 -3t-41.5 25t-12 48q5 35 32.5 46.5t62.5 8.5q36 -3 70 -17q8 40 4 83.5t-17 81.5q-10 27 -21 50h-132v24h121q-12 25 -23.5 50t-20.5 50.5t-14.5 52t-4.5 54.5
q1 35 14 70t40 59q24 21 57 27q17 3 37.5 4.5t37.5 -2.5q28 -7 45.5 -24t26 -39t8.5 -45t-7.5 -41.5t-21.5 -29t-34 -7.5q-19 2 -30 16.5t-9 31.5q2 15 13.5 24.5t25.5 11.5h5q14 2 18 15t-2 28q-8 15 -21.5 27t-37.5 15q-11 2 -23 1.5t-23 -3.5q-18 -4 -30 -17.5
t-18.5 -32.5t-7.5 -41t4 -44q6 -28 17 -54.5t24 -52.5t26.5 -52t24.5 -52h104v-24h-95q2 -5 2.5 -8.5t2.5 -8.5q17 -62 9 -111t-41 -100q0 -1 -1 -1q25 -13 49.5 -21t46.5 -10t39 3t26 18q6 8 8 18.5t3 19.5q0 11 -1 21h26zM155 51q1 1 -7.5 9t-20 17.5t-24 17t-19.5 7.5
q-8 0 -18 -1.5t-18.5 -6.5t-14 -14t-5.5 -24q0 -29 17.5 -40t34.5 -11q19 0 35.5 9t28.5 22q3 4 6 7.5t5 7.5z" />
    </font>
</defs>
</svg>
